<?xml version="1.0" encoding="utf-8"?>
<!-- Generator: Adobe Illustrator 15.0.0, SVG Export Plug-In . SVG Version: 6.00 Build 0)  -->
<!DOCTYPE svg PUBLIC "-//W3C//DTD SVG 1.1//EN" "http://www.w3.org/Graphics/SVG/1.1/DTD/svg11.dtd">
<svg version="1.1" id="Layer_1" xmlns="http://www.w3.org/2000/svg" xmlns:xlink="http://www.w3.org/1999/xlink" x="0px" y="0px"
	 width="175px" height="40px" viewBox="0 0 175 40" enable-background="new 0 0 175 40" xml:space="preserve">
<g>
	<defs>
		<path id="SVGID_1_" d="M171.618,25.122c-0.582,0.022-1.135,0.039-1.657,0.05c-0.521,0.012-1.029,0.021-1.522,0.026
			c-0.494,0.005-0.981,0.008-1.463,0.008h-1.463c-0.292,0.572-0.62,1.236-0.984,1.993c-0.365,0.757-0.746,1.551-1.144,2.38
			c-0.398,0.831-0.796,1.669-1.194,2.515c-0.398,0.848-0.776,1.649-1.136,2.406c-0.359,0.757-0.684,1.44-0.976,2.052
			c-0.292,0.611-0.527,1.096-0.707,1.455c-0.124,0.259-0.274,0.496-0.454,0.715c-0.179,0.219-0.375,0.406-0.589,0.564
			c-0.212,0.157-0.431,0.277-0.656,0.361c-0.224,0.084-0.432,0.126-0.623,0.126c-0.269,0-0.51-0.067-0.723-0.202
			c-0.213-0.134-0.32-0.347-0.32-0.639c0-0.146,0.034-0.317,0.101-0.513c0.067-0.196,0.163-0.423,0.286-0.681l5.938-12.583h-0.892
			c-0.617,0-1.037-0.095-1.262-0.286c-0.225-0.19-0.336-0.414-0.336-0.672c0-0.27,0.141-0.53,0.42-0.783
			c0.28-0.252,0.69-0.378,1.228-0.378h1.985c0.797-1.604,1.596-2.927,2.397-3.97c0.801-1.043,1.589-1.867,2.363-2.473
			s1.527-1.026,2.263-1.262c0.735-0.235,1.438-0.354,2.111-0.354c0.313,0,0.614,0.062,0.899,0.186
			c0.287,0.123,0.539,0.308,0.758,0.555s0.395,0.558,0.529,0.934c0.135,0.375,0.202,0.816,0.202,1.32
			c0,0.482-0.067,1.015-0.202,1.598c-0.033,0.157-0.101,0.289-0.201,0.396c-0.102,0.105-0.214,0.193-0.337,0.26
			c-0.124,0.067-0.247,0.115-0.37,0.143s-0.23,0.042-0.319,0.042c-0.225,0-0.433-0.054-0.622-0.16
			c-0.191-0.106-0.287-0.271-0.287-0.496c0-0.146,0.01-0.28,0.025-0.403c0.018-0.124,0.025-0.247,0.025-0.37
			c0-0.471-0.087-0.808-0.26-1.009c-0.174-0.202-0.407-0.303-0.699-0.303c-0.348,0-0.754,0.152-1.219,0.455
			c-0.466,0.303-0.937,0.707-1.413,1.211c-0.477,0.504-0.934,1.079-1.371,1.724c-0.438,0.644-0.797,1.303-1.077,1.976h3.919
			c0.348,0,0.673,0.006,0.976,0.017c0.303,0.011,0.569,0.044,0.799,0.101c0.229,0.056,0.409,0.148,0.538,0.277
			c0.129,0.129,0.193,0.316,0.193,0.563c0,0.123-0.022,0.246-0.066,0.37c-0.045,0.123-0.121,0.238-0.228,0.345
			s-0.255,0.196-0.446,0.269C172.168,25.051,171.922,25.099,171.618,25.122z M155.722,22.43c0.931,0,1.626,0.225,2.086,0.673
			c0.46,0.448,0.69,1.071,0.69,1.867c0,0.471-0.123,0.965-0.37,1.48c-0.247,0.516-0.673,1.041-1.278,1.573
			c-0.606,0.533-1.416,1.076-2.431,1.632c-1.015,0.555-2.285,1.113-3.811,1.674c0.057,0.325,0.23,0.58,0.521,0.765
			c0.292,0.186,0.679,0.278,1.161,0.278c0.516,0,1.069-0.076,1.657-0.228c0.589-0.151,1.172-0.345,1.749-0.58
			c0.578-0.235,1.142-0.49,1.691-0.765c0.55-0.275,1.046-0.536,1.488-0.783c0.443-0.246,0.813-0.459,1.111-0.639
			c0.297-0.18,0.496-0.292,0.597-0.337c0.101-0.067,0.193-0.106,0.277-0.118c0.084-0.011,0.16-0.017,0.227-0.017
			c0.135,0,0.247,0.031,0.336,0.093c0.09,0.062,0.166,0.134,0.228,0.218c0.061,0.084,0.103,0.174,0.126,0.269
			c0.022,0.097,0.034,0.177,0.034,0.245c0,0.101-0.011,0.222-0.034,0.361c-0.023,0.141-0.107,0.3-0.252,0.48
			c-0.057,0.056-0.244,0.208-0.564,0.454c-0.319,0.247-0.731,0.538-1.236,0.875c-0.505,0.336-1.091,0.693-1.758,1.068
			c-0.667,0.375-1.374,0.721-2.119,1.035c-0.746,0.313-1.522,0.574-2.33,0.781c-0.807,0.208-1.604,0.312-2.389,0.312
			c-0.673,0-1.27-0.128-1.792-0.387c-0.521-0.258-0.964-0.605-1.329-1.043c-0.364-0.438-0.642-0.942-0.832-1.514
			c-0.191-0.572-0.286-1.172-0.286-1.8c0-0.482,0.095-1.012,0.286-1.59c0.19-0.577,0.465-1.158,0.824-1.741
			c0.359-0.583,0.799-1.152,1.32-1.707c0.521-0.555,1.108-1.046,1.758-1.472c0.65-0.427,1.366-0.769,2.145-1.026
			C154.004,22.559,154.837,22.43,155.722,22.43z M155.117,24.751c-0.056-0.011-0.106-0.017-0.151-0.017h-0.151
			c-0.426,0-0.824,0.084-1.194,0.252c-0.37,0.168-0.709,0.39-1.018,0.665c-0.308,0.275-0.583,0.586-0.824,0.933
			c-0.241,0.348-0.457,0.693-0.648,1.035c-0.19,0.342-0.35,0.67-0.479,0.983c-0.128,0.314-0.227,0.578-0.294,0.791
			c0.393-0.202,0.799-0.432,1.219-0.689c0.421-0.258,0.816-0.505,1.186-0.74c0.37-0.236,0.693-0.448,0.967-0.64
			c0.275-0.19,0.469-0.319,0.581-0.387c0.504-0.313,0.852-0.608,1.043-0.883c0.191-0.274,0.286-0.513,0.286-0.715
			c0-0.168-0.053-0.303-0.16-0.404C155.373,24.835,155.251,24.774,155.117,24.751z M131.449,32.018
			c0.269-0.572,0.578-1.208,0.925-1.909s0.698-1.396,1.051-2.086s0.688-1.346,1.001-1.968c0.313-0.622,0.578-1.152,0.791-1.589
			l5.551-10.917c0.067-0.146,0.171-0.286,0.311-0.42c0.14-0.134,0.3-0.255,0.479-0.362c0.179-0.106,0.37-0.19,0.572-0.252
			c0.202-0.062,0.404-0.093,0.606-0.093c0.493,0,0.835,0.092,1.026,0.277c0.19,0.186,0.286,0.412,0.286,0.682
			c0,0.246-0.062,0.507-0.185,0.782c-0.124,0.274-0.264,0.53-0.42,0.766c-0.494,0.841-0.967,1.69-1.421,2.548
			c-0.454,0.858-0.908,1.721-1.363,2.591c-0.455,0.869-0.912,1.732-1.371,2.591c-0.46,0.857-0.942,1.707-1.447,2.548
			c0.314-0.303,0.647-0.617,1.001-0.941c0.353-0.326,0.737-0.623,1.152-0.892c0.415-0.27,0.869-0.491,1.363-0.665
			c0.493-0.174,1.043-0.261,1.648-0.261c0.358,0,0.701,0.034,1.026,0.102s0.611,0.176,0.858,0.327s0.443,0.359,0.589,0.623
			c0.146,0.264,0.219,0.586,0.219,0.967c0,0.504-0.076,0.967-0.227,1.388c-0.151,0.421-0.345,0.819-0.581,1.194
			c-0.235,0.376-0.494,0.735-0.773,1.077c-0.281,0.342-0.547,0.688-0.799,1.043c-0.253,0.353-0.471,0.72-0.657,1.101
			c-0.185,0.381-0.3,0.796-0.345,1.245c0,0.023-0.003,0.045-0.008,0.067c-0.006,0.023-0.009,0.045-0.009,0.067
			c0,0.225,0.075,0.365,0.228,0.421c0.151,0.056,0.344,0.084,0.58,0.084c0.303,0,0.627-0.06,0.976-0.177
			c0.347-0.117,0.698-0.274,1.051-0.471c0.353-0.196,0.706-0.417,1.06-0.665c0.353-0.246,0.689-0.498,1.009-0.757
			c0.319-0.258,0.614-0.507,0.883-0.749c0.269-0.24,0.499-0.451,0.689-0.63c0.101-0.09,0.208-0.157,0.32-0.202
			c0.112-0.044,0.219-0.067,0.319-0.067c0.202,0,0.374,0.076,0.514,0.228c0.14,0.15,0.21,0.356,0.21,0.613
			c0,0.236-0.081,0.505-0.244,0.808c-0.163,0.303-0.44,0.605-0.833,0.908c-0.616,0.539-1.244,1.055-1.883,1.548
			c-0.64,0.494-1.285,0.931-1.935,1.312c-0.651,0.381-1.299,0.684-1.943,0.909s-1.276,0.336-1.892,0.336
			c-0.796,0-1.436-0.182-1.917-0.546c-0.482-0.365-0.724-0.939-0.724-1.725c0-0.572,0.098-1.113,0.294-1.623
			c0.196-0.51,0.437-1.004,0.724-1.48c0.286-0.477,0.591-0.937,0.917-1.38c0.325-0.442,0.611-0.877,0.858-1.304
			c0.135-0.19,0.238-0.366,0.311-0.529s0.109-0.339,0.109-0.53c0-0.168-0.045-0.306-0.134-0.412c-0.09-0.106-0.23-0.16-0.421-0.16
			c-0.662,0-1.273,0.163-1.833,0.488c-0.561,0.326-1.077,0.74-1.547,1.245c-0.471,0.504-0.908,1.057-1.312,1.656
			c-0.404,0.601-0.78,1.176-1.127,1.725c-0.157,0.247-0.317,0.529-0.479,0.85c-0.162,0.32-0.331,0.647-0.504,0.984
			s-0.355,0.67-0.547,1.001c-0.191,0.331-0.389,0.625-0.597,0.883c-0.208,0.258-0.426,0.465-0.656,0.622
			c-0.23,0.157-0.469,0.235-0.715,0.235c-0.393,0-0.696-0.115-0.909-0.345c-0.212-0.229-0.319-0.519-0.319-0.866
			c0-0.258,0.044-0.529,0.134-0.816C131.102,32.783,131.248,32.433,131.449,32.018z M139.108,4.326c0,0.432-0.068,0.953-0.205,1.562
			c-0.136,0.609-0.333,1.242-0.589,1.898c-0.256,0.657-0.564,1.31-0.925,1.959c-0.36,0.648-0.773,1.233-1.237,1.754
			c-0.465,0.521-0.97,0.941-1.514,1.262s-1.129,0.48-1.754,0.48c-0.144,0-0.333-0.012-0.564-0.036
			c-0.232-0.024-0.465-0.081-0.697-0.168c-0.232-0.088-0.433-0.22-0.601-0.396c-0.168-0.176-0.252-0.409-0.252-0.697
			c0-0.193,0.051-0.417,0.156-0.673c0.104-0.256,0.292-0.553,0.564-0.889c0.289-0.321,0.601-0.701,0.938-1.142
			s0.641-0.901,0.913-1.382s0.501-0.953,0.685-1.418c0.184-0.464,0.276-0.881,0.276-1.249c0-0.465-0.108-0.837-0.324-1.118
			c-0.217-0.28-0.589-0.42-1.117-0.42c-0.689,0-1.466,0.225-2.332,0.673c-0.865,0.448-1.77,1.065-2.715,1.85
			c-0.945,0.785-1.907,1.702-2.883,2.751c-0.978,1.049-1.923,2.171-2.836,3.364s-1.774,2.436-2.583,3.725
			c-0.809,1.29-1.514,2.563-2.115,3.821c-0.601,1.258-1.073,2.467-1.418,3.628c-0.344,1.162-0.517,2.215-0.517,3.161
			c0,1.169,0.313,2.106,0.938,2.811c0.625,0.705,1.658,1.058,3.1,1.058c0.673,0,1.674-0.26,3.004-0.781
			c1.33-0.521,2.439-1.041,3.328-1.562s1.786-1.097,2.691-1.73c0.905-0.633,1.766-1.241,2.583-1.826
			c0.816-0.585,1.562-1.114,2.234-1.586c0.673-0.473,1.226-0.805,1.658-0.997c0.081-0.064,0.176-0.096,0.288-0.096
			c0.241,0,0.405,0.196,0.493,0.588s0.133,0.838,0.133,1.334c0,0.272-0.037,0.604-0.109,0.997c-0.071,0.393-0.3,0.845-0.685,1.358
			c-0.176,0.208-0.505,0.561-0.985,1.057c-0.481,0.497-1.082,1.058-1.803,1.682c-0.721,0.625-1.546,1.274-2.475,1.947
			c-0.929,0.673-1.935,1.289-3.016,1.85c-1.082,0.561-2.475,1.114-4.181,1.658c-1.707,0.544-3.192,0.817-4.458,0.817
			c-1.49,0-2.764-0.18-3.821-0.541c-1.057-0.36-1.922-0.861-2.595-1.502c-0.673-0.64-1.166-1.406-1.478-2.295
			s-0.468-1.862-0.468-2.92c0-1.313,0.2-2.723,0.601-4.229c0.4-1.506,0.958-3.036,1.67-4.59c0.712-1.554,1.562-3.108,2.547-4.662
			c0.985-1.554,2.066-3.04,3.244-4.458c1.177-1.417,2.431-2.736,3.761-3.953c1.33-1.218,2.691-2.275,4.085-3.173
			c1.394-0.896,2.796-1.602,4.206-2.114S132.748,0,134.109,0c0.673,0,1.313,0.076,1.922,0.229c0.609,0.152,1.142,0.396,1.598,0.732
			c0.457,0.336,0.817,0.782,1.082,1.333C138.976,2.848,139.108,3.524,139.108,4.326z M91.712,24.869
			c0.437-0.269,0.889-0.515,1.354-0.739c0.466-0.225,0.917-0.418,1.354-0.581c0.438-0.162,0.855-0.291,1.253-0.387
			c0.398-0.096,0.754-0.143,1.068-0.143c0.505,0,0.895,0.121,1.169,0.361c0.275,0.241,0.412,0.648,0.412,1.22
			c0,0.123-0.005,0.255-0.017,0.396c-0.011,0.14-0.034,0.288-0.067,0.445c-0.056,0.292-0.224,0.634-0.504,1.026
			c-0.28,0.393-0.608,0.802-0.984,1.228c-0.375,0.427-0.779,0.855-1.211,1.287c-0.432,0.433-0.83,0.831-1.194,1.195
			c-0.365,0.365-0.667,0.681-0.909,0.95c-0.241,0.27-0.362,0.454-0.362,0.555c0,0.09,0.006,0.151,0.017,0.185
			s0.062,0.051,0.151,0.051c0.605-0.258,1.282-0.569,2.026-0.934c0.746-0.364,1.489-0.737,2.229-1.119
			c0.74-0.381,1.441-0.753,2.103-1.119c0.662-0.364,1.223-0.681,1.682-0.95c0.101-0.056,0.205-0.104,0.312-0.143
			c0.106-0.039,0.204-0.059,0.294-0.059c0.202,0,0.37,0.067,0.505,0.202c0.134,0.134,0.202,0.314,0.202,0.539
			c0,0.258-0.109,0.552-0.328,0.883c-0.219,0.331-0.586,0.676-1.102,1.035c-0.393,0.247-0.833,0.525-1.321,0.833
			c-0.488,0.309-0.998,0.628-1.53,0.958c-0.533,0.332-1.071,0.654-1.615,0.967c-0.543,0.314-1.068,0.595-1.573,0.841
			c-0.504,0.247-0.979,0.446-1.422,0.598c-0.442,0.151-0.826,0.227-1.152,0.227c-0.774,0-1.354-0.186-1.741-0.556
			s-0.58-0.846-0.58-1.43c0-0.089,0.005-0.157,0.016-0.202c0.079-0.493,0.225-0.969,0.438-1.43c0.213-0.459,0.454-0.896,0.723-1.312
			c0.27-0.415,0.55-0.811,0.841-1.186c0.292-0.375,0.559-0.729,0.799-1.06c0.241-0.331,0.44-0.636,0.597-0.917
			c0.158-0.28,0.236-0.538,0.236-0.773c0-0.056-0.011-0.112-0.034-0.168c-0.022-0.056-0.073-0.084-0.151-0.084
			c-0.135,0-0.356,0.05-0.665,0.151c-0.308,0.101-0.636,0.236-0.983,0.404s-0.679,0.361-0.993,0.58
			c-0.313,0.219-0.538,0.452-0.673,0.698c-0.179,0.314-0.386,0.713-0.622,1.194c-0.235,0.482-0.479,0.987-0.732,1.514
			c-0.252,0.528-0.496,1.049-0.731,1.564c-0.235,0.517-0.438,0.959-0.605,1.329c-0.135,0.326-0.311,0.617-0.53,0.875
			c-0.219,0.258-0.457,0.477-0.714,0.656c-0.258,0.179-0.521,0.319-0.791,0.42c-0.269,0.101-0.516,0.151-0.74,0.151
			c-0.259,0-0.463-0.067-0.614-0.202c-0.151-0.134-0.227-0.353-0.227-0.656c0-0.123,0.02-0.277,0.059-0.463
			c0.039-0.186,0.12-0.389,0.244-0.614c0.202-0.381,0.407-0.796,0.614-1.245s0.446-0.962,0.715-1.54
			c0.269-0.576,0.581-1.238,0.934-1.984c0.353-0.745,0.771-1.606,1.253-2.582c-0.157-0.135-0.289-0.3-0.396-0.496
			s-0.159-0.44-0.159-0.732c0-0.269,0.056-0.501,0.168-0.698c0.112-0.196,0.263-0.356,0.454-0.479
			c0.19-0.124,0.412-0.216,0.665-0.277c0.251-0.062,0.518-0.093,0.798-0.093c0.292,0,0.583,0.025,0.875,0.076
			c0.292,0.05,0.552,0.126,0.782,0.227c0.23,0.102,0.418,0.225,0.563,0.37c0.146,0.146,0.219,0.314,0.219,0.504
			c0,0.034-0.011,0.079-0.034,0.134c-0.022,0.057-0.047,0.118-0.076,0.186s-0.053,0.129-0.076,0.185
			c-0.022,0.057-0.034,0.101-0.034,0.135c0,0.023,0.006,0.034,0.017,0.034h0.017L91.712,24.869z M78.895,22.447
			c0.426,0,0.883,0.056,1.371,0.169c0.487,0.111,0.939,0.303,1.354,0.571c0.415,0.27,0.76,0.625,1.035,1.068
			c0.274,0.442,0.412,0.989,0.412,1.64c0,0.336-0.045,0.721-0.135,1.152c-0.09,0.432-0.225,0.883-0.403,1.354
			c0.111,0.135,0.24,0.23,0.387,0.286c0.146,0.056,0.303,0.084,0.471,0.084c0.236,0,0.496-0.067,0.783-0.202
			c0.286-0.135,0.58-0.309,0.883-0.521s0.605-0.454,0.909-0.724c0.303-0.269,0.588-0.538,0.858-0.808
			c0.269-0.269,0.513-0.524,0.732-0.765c0.219-0.241,0.4-0.446,0.546-0.614c0.078-0.078,0.173-0.118,0.286-0.118
			c0.157,0,0.297,0.082,0.421,0.244c0.123,0.163,0.185,0.39,0.185,0.682s-0.087,0.628-0.261,1.009
			c-0.173,0.382-0.496,0.78-0.967,1.194c-0.269,0.292-0.578,0.629-0.925,1.01c-0.348,0.381-0.718,0.74-1.11,1.076
			c-0.393,0.337-0.802,0.623-1.228,0.858c-0.426,0.235-0.853,0.353-1.278,0.353c-0.291,0-0.575-0.044-0.85-0.135
			c-0.274-0.089-0.552-0.235-0.833-0.437c-0.404,0.628-0.863,1.2-1.379,1.716s-1.091,0.958-1.725,1.329
			c-0.633,0.37-1.317,0.659-2.052,0.866c-0.734,0.208-1.517,0.312-2.347,0.312c-0.314,0-0.679-0.061-1.094-0.185
			c-0.414-0.123-0.81-0.328-1.186-0.614s-0.692-0.658-0.95-1.119c-0.258-0.459-0.387-1.02-0.387-1.682
			c0-0.448,0.073-0.986,0.219-1.615c0.146-0.628,0.368-1.275,0.664-1.943c0.297-0.667,0.673-1.329,1.127-1.984
			c0.454-0.656,0.995-1.245,1.623-1.766c0.629-0.521,1.346-0.942,2.153-1.262S77.908,22.447,78.895,22.447z M78.02,25.407
			c-0.528,0-1.035,0.132-1.522,0.396c-0.488,0.264-0.92,0.611-1.296,1.043s-0.676,0.919-0.9,1.463
			c-0.224,0.544-0.336,1.102-0.336,1.674c0,0.213,0.017,0.445,0.051,0.698c0.033,0.252,0.104,0.487,0.21,0.707
			c0.106,0.218,0.261,0.401,0.463,0.546c0.202,0.146,0.471,0.219,0.807,0.219c0.516,0,1.018-0.138,1.506-0.412
			c0.487-0.274,0.922-0.634,1.303-1.076c0.382-0.443,0.685-0.945,0.909-1.506s0.336-1.127,0.336-1.699
			c0-0.224-0.014-0.457-0.042-0.698c-0.028-0.24-0.095-0.462-0.202-0.664c-0.106-0.202-0.261-0.367-0.462-0.496
			C78.643,25.472,78.367,25.407,78.02,25.407z M74.672,25.122c-0.583,0.022-1.135,0.039-1.657,0.05
			c-0.521,0.012-1.028,0.021-1.522,0.026c-0.494,0.005-0.981,0.008-1.464,0.008h-1.463c-0.292,0.572-0.619,1.236-0.984,1.993
			c-0.364,0.757-0.745,1.551-1.144,2.38c-0.398,0.831-0.796,1.669-1.195,2.515c-0.398,0.848-0.777,1.649-1.135,2.406
			c-0.358,0.757-0.685,1.44-0.976,2.052c-0.291,0.611-0.526,1.096-0.707,1.455c-0.123,0.259-0.275,0.496-0.454,0.715
			c-0.179,0.219-0.375,0.406-0.589,0.564c-0.213,0.157-0.431,0.277-0.656,0.361s-0.432,0.126-0.623,0.126
			c-0.269,0-0.51-0.067-0.723-0.202c-0.213-0.134-0.319-0.347-0.319-0.639c0-0.146,0.034-0.317,0.101-0.513
			c0.067-0.196,0.163-0.423,0.286-0.681l5.938-12.583h-0.892c-0.616,0-1.037-0.095-1.262-0.286c-0.224-0.19-0.336-0.414-0.336-0.672
			c0-0.27,0.141-0.53,0.42-0.783c0.281-0.252,0.69-0.378,1.228-0.378h1.985c0.796-1.604,1.595-2.927,2.397-3.97
			s1.59-1.867,2.363-2.473c0.774-0.605,1.528-1.026,2.263-1.262s1.438-0.354,2.111-0.354c0.313,0,0.613,0.062,0.9,0.186
			c0.285,0.123,0.538,0.308,0.756,0.555c0.22,0.247,0.396,0.558,0.53,0.934c0.135,0.375,0.202,0.816,0.202,1.32
			c0,0.482-0.067,1.015-0.202,1.598c-0.033,0.157-0.101,0.289-0.202,0.396c-0.101,0.105-0.213,0.193-0.336,0.26
			c-0.124,0.067-0.246,0.115-0.37,0.143s-0.23,0.042-0.319,0.042c-0.225,0-0.432-0.054-0.623-0.16
			c-0.19-0.106-0.286-0.271-0.286-0.496c0-0.146,0.009-0.28,0.025-0.403c0.018-0.124,0.025-0.247,0.025-0.37
			c0-0.471-0.087-0.808-0.261-1.009s-0.406-0.303-0.698-0.303c-0.348,0-0.754,0.152-1.22,0.455
			c-0.465,0.303-0.936,0.707-1.413,1.211c-0.476,0.504-0.933,1.079-1.37,1.724c-0.438,0.644-0.796,1.303-1.077,1.976h3.92
			c0.347,0,0.673,0.006,0.976,0.017c0.303,0.011,0.569,0.044,0.799,0.101c0.23,0.056,0.409,0.148,0.539,0.277
			c0.128,0.129,0.193,0.316,0.193,0.563c0,0.123-0.022,0.246-0.067,0.37c-0.045,0.123-0.121,0.238-0.227,0.345
			s-0.255,0.196-0.446,0.269S74.975,25.099,74.672,25.122z M48.465,24.684c-0.673,0.022-1.379,0.168-2.12,0.438
			c-0.852,0.292-1.631,0.727-2.338,1.304c-0.706,0.577-1.304,1.286-1.791,2.128c-0.488,0.841-0.766,1.806-0.833,2.893
			c0,0.449,0.191,0.673,0.572,0.673c0.471,0,0.919-0.098,1.346-0.294c0.426-0.196,0.833-0.459,1.219-0.791
			c0.388-0.33,0.749-0.708,1.086-1.135c0.336-0.426,0.647-0.869,0.933-1.329c0.287-0.46,0.544-0.917,0.774-1.371
			c0.229-0.455,0.429-0.877,0.597-1.27c0.056-0.124,0.134-0.297,0.236-0.521C48.234,25.195,48.342,24.953,48.465,24.684z
			 M48.97,31.261c-0.012,0.022-0.017,0.05-0.017,0.084s-0.005,0.062-0.017,0.084c0,0.202,0.051,0.412,0.151,0.631
			c0.102,0.219,0.264,0.328,0.488,0.328c0.089,0,0.157-0.011,0.202-0.034c0.639-0.19,1.287-0.493,1.943-0.908
			c0.656-0.415,1.287-0.869,1.893-1.363c0.605-0.493,1.163-0.998,1.673-1.514s0.934-0.976,1.271-1.38
			c0.157-0.19,0.331-0.286,0.521-0.286c0.168,0,0.316,0.079,0.446,0.236c0.129,0.157,0.193,0.37,0.193,0.639
			c0,0.214-0.059,0.466-0.177,0.757c-0.117,0.292-0.311,0.605-0.58,0.942c-0.662,0.729-1.341,1.43-2.036,2.103
			s-1.396,1.27-2.103,1.792c-0.706,0.521-1.41,0.939-2.111,1.253c-0.701,0.314-1.387,0.471-2.06,0.471
			c-0.818,0-1.463-0.232-1.935-0.698c-0.471-0.465-0.707-1.163-0.707-2.094v-0.177c0-0.062,0.006-0.12,0.017-0.177
			c-0.258,0.471-0.588,0.9-0.992,1.287c-0.404,0.387-0.847,0.718-1.329,0.993c-0.481,0.275-0.981,0.488-1.497,0.639
			c-0.516,0.152-1.015,0.227-1.497,0.227c-0.415,0-0.796-0.056-1.144-0.168c-0.348-0.112-0.647-0.291-0.9-0.538
			c-0.252-0.247-0.448-0.561-0.588-0.942c-0.14-0.381-0.21-0.841-0.21-1.379c0-0.942,0.146-1.836,0.438-2.684
			c0.291-0.846,0.679-1.626,1.161-2.338c0.482-0.712,1.035-1.351,1.657-1.917c0.623-0.566,1.268-1.048,1.935-1.447
			s1.331-0.704,1.993-0.916c0.662-0.214,1.268-0.32,1.817-0.32c0.639,0,1.188,0.106,1.649,0.32c0.224,0.111,0.432,0.263,0.622,0.454
			c0.045-0.101,0.09-0.197,0.135-0.286c0.112-0.27,0.213-0.502,0.303-0.698c0.089-0.196,0.151-0.339,0.185-0.429
			c0.034-0.101,0.129-0.337,0.286-0.707c0.157-0.37,0.339-0.805,0.547-1.304c0.207-0.499,0.432-1.034,0.673-1.606
			c0.241-0.571,0.463-1.11,0.665-1.614c0.202-0.505,0.375-0.939,0.521-1.304c0.145-0.365,0.235-0.597,0.269-0.698
			c0.078-0.281,0.185-0.553,0.319-0.816c0.135-0.263,0.294-0.493,0.48-0.689c0.185-0.197,0.4-0.354,0.647-0.471
			c0.247-0.118,0.527-0.177,0.842-0.177c0.426,0,0.778,0.092,1.06,0.277c0.28,0.186,0.42,0.541,0.42,1.068
			c0,0.213-0.029,0.432-0.084,0.656c-0.056,0.224-0.121,0.442-0.193,0.656c-0.073,0.212-0.152,0.423-0.235,0.631
			c-0.084,0.207-0.16,0.4-0.228,0.58c-0.561,1.121-1.149,2.341-1.766,3.659c-0.618,1.316-1.228,2.643-1.834,3.978
			c-0.605,1.334-1.183,2.635-1.732,3.902C49.866,29.097,49.385,30.241,48.97,31.261z M32.854,23.911
			c0.19-0.314,0.409-0.538,0.656-0.673c0.247-0.135,0.5-0.202,0.757-0.202c0.426,0,0.794,0.138,1.102,0.412
			c0.309,0.274,0.463,0.625,0.463,1.051c-0.011,0.102-0.026,0.202-0.042,0.303c-0.018,0.102-0.054,0.202-0.109,0.303
			c-0.156,0.292-0.286,0.539-0.387,0.74c-0.101,0.202-0.194,0.391-0.277,0.564c-0.084,0.173-0.165,0.344-0.244,0.513
			c-0.079,0.168-0.173,0.37-0.286,0.605c-0.135,0.28-0.286,0.586-0.455,0.917c-0.168,0.332-0.328,0.67-0.479,1.018
			c-0.151,0.348-0.28,0.689-0.386,1.026s-0.16,0.645-0.16,0.925c0,0.303,0.075,0.502,0.228,0.597
			c0.15,0.096,0.367,0.144,0.647,0.144c0.314,0,0.643-0.067,0.984-0.202c0.342-0.135,0.688-0.308,1.035-0.521
			c0.348-0.213,0.69-0.457,1.026-0.731c0.337-0.274,0.654-0.552,0.951-0.833c0.297-0.28,0.572-0.549,0.823-0.807
			c0.253-0.258,0.463-0.488,0.631-0.69c0.225-0.213,0.449-0.319,0.673-0.319c0.202,0,0.368,0.09,0.497,0.269
			c0.129,0.18,0.193,0.41,0.193,0.69c0,0.258-0.064,0.532-0.193,0.824s-0.339,0.566-0.631,0.824
			c-0.572,0.583-1.155,1.141-1.75,1.674c-0.594,0.533-1.203,1.004-1.824,1.413c-0.623,0.41-1.248,0.738-1.876,0.984
			c-0.628,0.247-1.262,0.37-1.901,0.37c-0.908,0-1.623-0.232-2.145-0.698c-0.521-0.465-0.782-1.191-0.782-2.178
			c0-0.516,0.073-1.021,0.219-1.514c0.146-0.493,0.319-0.972,0.521-1.438c0.202-0.465,0.416-0.914,0.639-1.345
			c0.224-0.432,0.416-0.844,0.572-1.237c0.056-0.145,0.155-0.37,0.294-0.673c0.14-0.303,0.29-0.611,0.446-0.925
			C32.463,24.717,32.652,24.325,32.854,23.911z M34.705,20.125c0-0.258,0.048-0.524,0.143-0.799
			c0.096-0.274,0.239-0.524,0.429-0.749c0.19-0.225,0.429-0.41,0.716-0.555c0.285-0.146,0.625-0.219,1.017-0.219
			c0.651,0,1.105,0.126,1.363,0.378c0.258,0.253,0.387,0.569,0.387,0.951c0,0.213-0.042,0.448-0.126,0.707
			c-0.083,0.257-0.21,0.496-0.378,0.715c-0.168,0.218-0.387,0.4-0.656,0.546s-0.589,0.219-0.959,0.219
			c-0.695,0-1.182-0.109-1.463-0.327C34.896,20.773,34.738,20.484,34.705,20.125z M17.494,17.062
			c-0.721,1.634-1.398,3.1-2.031,4.397c-0.632,1.298-1.229,2.488-1.79,3.569c-0.561,1.082-1.093,2.091-1.598,3.028
			c-0.505,0.937-0.997,1.854-1.478,2.751c1.858-0.16,3.592-0.484,5.202-0.973c1.61-0.489,3.012-1.093,4.206-1.814
			c1.194-0.721,2.131-1.53,2.812-2.427c0.68-0.897,1.021-1.842,1.021-2.835c0-0.449-0.1-0.922-0.3-1.418
			c-0.2-0.497-0.541-0.994-1.021-1.49c-0.48-0.497-1.129-0.985-1.946-1.466S18.728,17.462,17.494,17.062z M18.816,12.472
			c1.426-0.577,2.675-1.17,3.749-1.778c1.073-0.609,1.97-1.214,2.691-1.814c0.721-0.601,1.266-1.182,1.634-1.742
			c0.369-0.561,0.552-1.073,0.552-1.538c0-0.16-0.08-0.345-0.239-0.553c-0.161-0.208-0.405-0.4-0.733-0.577
			c-0.329-0.176-0.741-0.325-1.238-0.445c-0.497-0.12-1.073-0.18-1.73-0.18c-1.763,0-3.396,0.212-4.902,0.637
			c-1.506,0.424-2.876,0.94-4.109,1.55s-2.323,1.246-3.268,1.91c-0.945,0.665-1.738,1.246-2.379,1.742
			c-0.4,0.304-0.75,0.604-1.045,0.901c-0.296,0.297-0.585,0.561-0.865,0.793s-0.581,0.421-0.9,0.565
			c-0.321,0.144-0.705,0.216-1.154,0.216c-0.673,0-1.197-0.16-1.574-0.481c-0.376-0.32-0.565-0.769-0.565-1.345
			c0-0.689,0.272-1.422,0.817-2.199s1.298-1.55,2.259-2.319s2.091-1.502,3.388-2.199c1.298-0.697,2.696-1.31,4.193-1.838
			c1.498-0.529,3.06-0.953,4.686-1.274c1.626-0.32,3.256-0.48,4.89-0.48c1.683,0,3.132,0.136,4.35,0.408
			c1.217,0.272,2.214,0.649,2.992,1.13s1.354,1.049,1.73,1.706c0.376,0.657,0.564,1.37,0.564,2.139c0,0.769-0.256,1.57-0.769,2.403
			c-0.513,0.833-1.246,1.666-2.199,2.499s-2.115,1.631-3.484,2.392s-2.912,1.453-4.626,2.078c1.698,0.561,3.08,1.149,4.145,1.766
			c1.066,0.617,1.899,1.258,2.5,1.922c0.601,0.665,1.005,1.354,1.213,2.066c0.208,0.713,0.312,1.446,0.312,2.199
			c0,1.105-0.304,2.195-0.914,3.268c-0.608,1.074-1.453,2.087-2.535,3.04c-1.081,0.954-2.362,1.835-3.844,2.644
			s-3.096,1.506-4.842,2.091s-3.589,1.042-5.527,1.37c-1.938,0.328-3.9,0.492-5.887,0.492c-0.705,0-1.418-0.04-2.138-0.12
			c-0.722-0.08-1.382-0.224-1.983-0.433c-0.601-0.208-1.089-0.489-1.465-0.841C0.188,33.891,0,33.434,0,32.874
			c0-0.063,0.004-0.124,0.012-0.18c0.008-0.057,0.021-0.125,0.037-0.205c0.064-0.128,0.136-0.284,0.216-0.468
			c0.081-0.185,0.264-0.365,0.553-0.541c0.288-0.177,0.74-0.325,1.357-0.444c0.617-0.12,1.502-0.181,2.655-0.181
			c2.003-3.668,3.657-6.828,4.962-9.48c1.305-2.651,2.399-4.834,3.28-6.548c0.882-1.714,1.622-2.98,2.223-3.797
			c0.601-0.817,1.189-1.226,1.767-1.226c0.257,0,0.505,0.04,0.745,0.121s0.452,0.188,0.637,0.325
			c0.184,0.136,0.332,0.304,0.444,0.504c0.112,0.2,0.168,0.42,0.168,0.661c-0.128,0.16-0.2,0.324-0.216,0.492
			C18.824,12.075,18.816,12.263,18.816,12.472z"/>
	</defs>
	<clipPath id="SVGID_2_">
		<use xlink:href="#SVGID_1_"  overflow="visible"/>
	</clipPath>
	<rect x="-2.461" y="-2.461" clip-path="url(#SVGID_2_)" fill="#FFFFFF" width="179.921" height="44.695"/>
</g>
</svg>
