<?xml version="1.0" encoding="utf-8"?>
<!-- Generator: Adobe Illustrator 15.0.0, SVG Export Plug-In . SVG Version: 6.00 Build 0)  -->
<!DOCTYPE svg PUBLIC "-//W3C//DTD SVG 1.1//EN" "http://www.w3.org/Graphics/SVG/1.1/DTD/svg11.dtd">
<svg version="1.1" id="Layer_1" xmlns="http://www.w3.org/2000/svg" xmlns:xlink="http://www.w3.org/1999/xlink" x="0px" y="0px"
	 width="20px" height="20px" viewBox="0 0 20 20" enable-background="new 0 0 20 20" xml:space="preserve">
<title>Icon-filter</title>
<desc>Created with Sketch.</desc>
<g id="BFC">
	<g id="_x32_1.-Bidding" transform="translate(-680.000000, -850.000000)">
		<g id="biding-filter" transform="translate(0.000000, 830.000000)">
			<g id="Icon-filter" transform="translate(682.000000, 22.000000)">
				<g id="Icon">
					<path fill="#FFFFFF" d="M17-0.286H8.571V-1c0-0.552-0.448-1-1-1H2.429c-0.552,0-1,0.448-1,1v0.714H-1c-0.552,0-1,0.448-1,1
						s0.448,1,1,1h2.429v0.714c0,0.552,0.448,1,1,1h5.143c0.552,0,1-0.448,1-1V1.714H17c0.552,0,1-0.448,1-1S17.552-0.286,17-0.286z
						 M6.571,1.429H3.429V0h3.143V1.429z"/>
					<path fill="#FFFFFF" d="M17,6.965h-2.429V6.25c0-0.552-0.448-1-1-1H8.429c-0.552,0-1,0.448-1,1v0.715H-1c-0.552,0-1,0.447-1,1
						c0,0.552,0.448,1,1,1h8.429v0.714c0,0.552,0.448,1,1,1h5.143c0.552,0,1-0.448,1-1V8.965H17c0.552,0,1-0.448,1-1
						C18,7.412,17.552,6.965,17,6.965z M12.571,8.679H9.429V7.25h3.143V8.679z"/>
					<path fill="#FFFFFF" d="M17,14.214H8.571V13.5c0-0.552-0.448-1-1-1H2.429c-0.552,0-1,0.448-1,1v0.714H-1c-0.552,0-1,0.448-1,1
						c0,0.553,0.448,1,1,1h2.429v0.715c0,0.552,0.448,1,1,1h5.143c0.552,0,1-0.448,1-1v-0.715H17c0.552,0,1-0.447,1-1
						C18,14.662,17.552,14.214,17,14.214z M6.571,15.929H3.429V14.5h3.143V15.929z"/>
				</g>
			</g>
		</g>
	</g>
</g>
</svg>
