<?xml version="1.0" encoding="utf-8"?>
<!-- Generator: Adobe Illustrator 15.0.0, SVG Export Plug-In . SVG Version: 6.00 Build 0)  -->
<!DOCTYPE svg PUBLIC "-//W3C//DTD SVG 1.1//EN" "http://www.w3.org/Graphics/SVG/1.1/DTD/svg11.dtd">
<svg version="1.1" id="Layer_1" xmlns="http://www.w3.org/2000/svg" xmlns:xlink="http://www.w3.org/1999/xlink" x="0px" y="0px"
	 width="17px" height="17px" viewBox="0 0 17 17" enable-background="new 0 0 17 17" xml:space="preserve">
<title>ic_signup_close</title>
<desc>Created with Sketch.</desc>
<g id="BFC">
	<g id="_x33_-2.-Role" transform="translate(-46.000000, -46.000000)">
		<path id="ic_signup_close" fill="#FFFFFF" d="M54.5,52.868l-6.53-6.53c-0.451-0.451-1.181-0.45-1.631,0
			c-0.454,0.454-0.451,1.182,0,1.631l6.53,6.53l-6.53,6.529c-0.451,0.451-0.45,1.181,0,1.632c0.454,0.452,1.182,0.45,1.631,0
			l6.53-6.529l6.529,6.529c0.451,0.452,1.181,0.45,1.632,0c0.452-0.455,0.45-1.182,0-1.632L56.132,54.5l6.529-6.53
			c0.452-0.451,0.45-1.181,0-1.631c-0.455-0.454-1.182-0.451-1.632,0L54.5,52.868z"/>
	</g>
</g>
</svg>
