<?xml version="1.0" encoding="utf-8"?>
<!-- Generator: Adobe Illustrator 15.0.0, SVG Export Plug-In . SVG Version: 6.00 Build 0)  -->
<!DOCTYPE svg PUBLIC "-//W3C//DTD SVG 1.1//EN" "http://www.w3.org/Graphics/SVG/1.1/DTD/svg11.dtd">
<svg version="1.1" id="Layer_1" xmlns="http://www.w3.org/2000/svg" xmlns:xlink="http://www.w3.org/1999/xlink" x="0px" y="0px"
	 width="40px" height="40px" viewBox="0 0 40 40" enable-background="new 0 0 40 40" xml:space="preserve">
<title>icon-bid</title>
<desc>Created with Sketch.</desc>
<g id="BFC">
	<g id="_x32_2.-Bidding-Detail" transform="translate(-61.000000, -950.000000)">
		<g id="bid-sum" transform="translate(60.000000, 916.000000)">
			<g id="bidding">
				<g id="icon-bid" transform="translate(1.000000, 34.000000)">
					<circle id="Oval" fill="#FF533D" cx="20" cy="20" r="20"/>
					<path fill="#FFFFFF" d="M19.884,10.5c-4.791,0-8.688,3.563-8.688,7.943c0,2.701,1.477,5.072,3.723,6.514v2.564
						c0,0.624,0.558,1.135,1.241,1.135h7.447c0.683,0,1.241-0.511,1.241-1.135v-2.564c2.246-1.441,3.723-3.812,3.723-6.514
						C28.572,14.063,24.675,10.5,19.884,10.5L19.884,10.5z M22.507,24.292v2.775h-5.28v-2.775l-1.122-0.725
						c-1.782-1.134-2.838-2.98-2.838-4.948c0-3.331,2.957-6.034,6.601-6.034c3.643,0,6.6,2.703,6.6,6.034
						c0,1.968-1.056,3.814-2.838,4.948L22.507,24.292z"/>
				</g>
			</g>
		</g>
	</g>
</g>
</svg>
