<?xml version="1.0" encoding="UTF-8" standalone="no"?>
<svg width="32px" height="32px" viewBox="0 0 32 32" version="1.1" xmlns="http://www.w3.org/2000/svg" xmlns:xlink="http://www.w3.org/1999/xlink">
    <!-- Generator: Sketch 39.1 (31720) - http://www.bohemiancoding.com/sketch -->
    <title>icon exp</title>
    <desc>Created with Sketch.</desc>
    <defs></defs>
    <g id="BFC" stroke="none" stroke-width="1" fill="none" fill-rule="evenodd">
        <g id="22.-Bidding-Detail" transform="translate(-391.000000, -582.000000)" fill="#989DA2">
            <g id="profile">
                <g id="info" transform="translate(62.000000, 568.000000)">
                    <g id="info2" transform="translate(328.000000, 0.000000)">
                        <g id="icon-exp" transform="translate(1.000000, 14.000000)">
                            <path d="M2.337,28.249 L15.465,15.121 L16.879,16.535 L3.751,29.663 C3.557,29.857 3.306,29.952 3.044,29.953 C2.782,29.952 2.531,29.857 2.337,29.663 C2.143,29.469 2.048,29.218 2.047,28.956 C2.048,28.694 2.143,28.443 2.337,28.249 L2.337,28.249 Z M15.465,10.878 C15.659,10.684 15.91,10.589 16.172,10.588 C16.434,10.589 16.685,10.684 16.879,10.878 L21.122,15.121 C21.316,15.315 21.411,15.566 21.412,15.828 C21.411,16.09 21.316,16.341 21.122,16.535 C20.928,16.729 20.676,16.825 20.415,16.826 C20.153,16.825 19.902,16.729 19.708,16.535 L15.465,12.292 C15.271,12.098 15.176,11.847 15.175,11.585 C15.176,11.323 15.271,11.072 15.465,10.878 L14.758,10.171 L15.465,10.878 L15.465,10.878 Z M16.879,6.635 C17.073,6.442 17.324,6.346 17.586,6.345 C17.848,6.346 18.099,6.442 18.293,6.635 L25.365,13.707 C25.558,13.901 25.654,14.152 25.655,14.414 C25.654,14.675 25.558,14.927 25.364,15.121 C25.17,15.314 24.919,15.41 24.657,15.411 C24.396,15.41 24.144,15.315 23.95,15.121 L22.536,13.707 L22.536,13.706 L16.879,8.05 C16.685,7.856 16.59,7.604 16.589,7.343 C16.59,7.081 16.685,6.83 16.879,6.635 L16.172,5.928 L16.879,6.635 L16.879,6.635 Z M19.708,3.807 L19.708,3.807 C19.905,3.61 20.156,3.515 20.415,3.514 C20.674,3.515 20.924,3.61 21.122,3.807 L28.193,10.878 C28.39,11.076 28.485,11.326 28.486,11.585 C28.485,11.844 28.39,12.094 28.193,12.292 C27.995,12.49 27.745,12.584 27.486,12.585 C27.227,12.584 26.977,12.49 26.779,12.292 L19.708,5.221 C19.511,5.023 19.416,4.773 19.415,4.514 C19.416,4.255 19.51,4.005 19.708,3.807 L19.708,3.807 Z M23.95,2.393 C24.148,2.196 24.398,2.101 24.657,2.1 C24.917,2.101 25.167,2.196 25.364,2.393 L29.607,6.635 L29.607,6.636 C29.804,6.833 29.899,7.083 29.9,7.343 C29.899,7.602 29.804,7.852 29.607,8.05 C29.409,8.247 29.159,8.341 28.9,8.343 C28.641,8.341 28.391,8.247 28.193,8.05 L23.95,3.807 C23.756,3.612 23.66,3.356 23.658,3.068 C23.658,2.838 23.751,2.593 23.95,2.393 L23.95,2.393 Z M29.35,24.032 C29.725,24.639 29.905,25.317 29.906,26.001 C29.905,27.299 29.254,28.588 28.064,29.33 C27.443,29.718 26.732,29.922 26.006,29.922 C24.641,29.919 23.419,29.242 22.696,28.09 C22.307,27.469 22.111,26.751 22.111,26.028 C22.111,25.311 22.306,24.595 22.689,23.973 L26,19.408 L29.35,24.032 L29.35,24.032 Z M0.047,28.956 C0.046,29.719 0.339,30.493 0.923,31.077 C1.507,31.661 2.281,31.954 3.044,31.953 C3.808,31.954 4.582,31.661 5.165,31.077 L18.293,17.949 C18.877,18.533 19.651,18.826 20.415,18.825 C21.178,18.826 21.952,18.533 22.536,17.949 C22.815,17.671 23.023,17.347 23.169,17.003 C23.631,17.268 24.144,17.412 24.657,17.411 C24.772,17.411 24.886,17.392 25.001,17.378 L21.039,22.842 L21,22.9 C20.406,23.855 20.111,24.943 20.111,26.028 C20.111,27.112 20.405,28.198 21,29.15 C22.079,30.881 23.964,31.924 26.006,31.922 C27.107,31.922 28.188,31.612 29.125,31.026 C30.924,29.899 31.906,27.96 31.905,26.001 C31.906,24.957 31.626,23.898 31.039,22.958 L31,22.901 L26.81,17.117 C26.713,16.984 26.586,16.88 26.443,16.809 C26.558,16.723 26.674,16.639 26.779,16.535 C27.323,15.991 27.603,15.282 27.64,14.57 C28.353,14.534 29.063,14.251 29.607,13.707 L29.607,13.706 C30.191,13.123 30.487,12.349 30.486,11.585 C30.487,11.072 30.342,10.559 30.077,10.097 C30.42,9.951 30.743,9.742 31.021,9.464 C31.605,8.881 31.901,8.107 31.9,7.343 C31.901,6.578 31.605,5.804 31.021,5.221 L26.779,0.979 C26.196,0.395 25.422,0.099 24.657,0.1 C23.893,0.099 23.119,0.395 22.536,0.979 C22.26,1.254 22.047,1.575 21.898,1.921 C21.438,1.658 20.927,1.513 20.415,1.514 C19.65,1.513 18.877,1.809 18.293,2.393 L18.294,2.393 C17.749,2.937 17.466,3.647 17.43,4.36 C16.718,4.396 16.009,4.677 15.465,5.221 C14.881,5.805 14.588,6.579 14.589,7.343 C14.588,7.856 14.732,8.369 14.997,8.831 C14.653,8.977 14.329,9.185 14.051,9.464 C13.467,10.048 13.174,10.822 13.174,11.585 C13.174,12.349 13.467,13.123 14.051,13.706 L0.923,26.834 C0.339,27.418 0.046,28.192 0.047,28.956 L0.047,28.956 Z" id="Fill-87"></path>
                        </g>
                    </g>
                </g>
            </g>
        </g>
    </g>
</svg>