<?xml version="1.0" encoding="UTF-8" standalone="no"?>
<svg width="17px" height="17px" viewBox="0 0 17 17" version="1.1" xmlns="http://www.w3.org/2000/svg" xmlns:xlink="http://www.w3.org/1999/xlink">
    <!-- Generator: Sketch 39.1 (31720) - http://www.bohemiancoding.com/sketch -->
    <title>icon-schedule</title>
    <desc>Created with Sketch.</desc>
    <defs></defs>
    <g id="BFC" stroke="none" stroke-width="1" fill="none" fill-rule="evenodd">
        <g id="21.-Bidding" transform="translate(-424.000000, -1000.000000)" fill="#C7C7CD">
            <g id="#biding-item" transform="translate(0.000000, 943.000000)">
                <g id="text" transform="translate(151.204819, 2.436578)">
                    <g id="summary" transform="translate(1.795181, 42.000000)">
                        <g id="days" transform="translate(271.000000, 5.000000)">
                            <path d="M8.12,22.3169815 C4.53096,22.3169815 1.624,19.382938 1.624,15.7604598 C1.624,12.1379815 4.53096,9.20393804 8.12,9.20393804 C11.70904,9.20393804 14.616,12.1379815 14.616,15.7604598 C14.616,19.382938 11.70904,22.3169815 8.12,22.3169815 M8.11188,7.56521739 C3.62964,7.56521739 0,11.2368696 0,15.7604598 C0,20.2844598 3.62964,23.956112 8.11188,23.956112 C12.60224,23.956112 16.24,20.2844598 16.24,15.7604598 C16.24,11.2368696 12.60224,7.56521739 8.11188,7.56521739 M8.526,11.6630435 L7.308,11.6630435 L7.308,16.5804348 L11.571,19.1620652 L12.18,18.1544098 L8.526,15.9657609 L8.526,11.6630435" id="icon-schedule"></path>
                        </g>
                    </g>
                </g>
            </g>
        </g>
    </g>
</svg>