<?xml version="1.0" encoding="UTF-8" standalone="no"?>
<svg width="170px" height="128px" viewBox="0 0 170 128" version="1.1" xmlns="http://www.w3.org/2000/svg" xmlns:xlink="http://www.w3.org/1999/xlink">
    <!-- Generator: Sketch 39.1 (31720) - http://www.bohemiancoding.com/sketch -->
    <title>icon dish</title>
    <desc>Created with Sketch.</desc>
    <defs></defs>
    <g id="BFC" stroke="none" stroke-width="1" fill="none" fill-rule="evenodd">
        <g id="42-3.-signature" transform="translate(-290.000000, -242.000000)" fill="#323B46">
            <g id="add-dishes" transform="translate(63.000000, 130.000000)">
                <g id="take-a-photo">
                    <g id="icon-dish" transform="translate(227.000000, 112.000000)">
                        <path d="M154.0625,116.875 L15.9375,116.875 C13.005,116.869687 10.6303125,114.495 10.625,111.5625 C10.6303125,108.63 13.005,106.25 15.9375,106.25 L154.0625,106.25 C156.995,106.25 159.369688,108.63 159.375,111.5625 C159.369688,114.495 156.995,116.869687 154.0625,116.875 L154.0625,116.875 Z M85,42.5 C116.519063,42.4840625 142.77875,65.5296875 147.846875,95.625 L22.153125,95.625 C27.22125,65.5296875 53.4809375,42.4840625 85,42.5 L85,42.5 Z M85,10.625 C90.84375,10.635625 95.614375,15.40625 95.625,21.25 C95.614375,27.09375 90.84375,31.864375 85,31.875 C79.15625,31.864375 74.385625,27.09375 74.375,21.25 C74.385625,15.40625 79.15625,10.635625 85,10.625 L85,10.625 Z M158.636562,96.3740625 C154.524687,65.6465625 131.68625,40.885 101.968125,33.9096875 C104.619062,30.36625 106.244688,26.0153125 106.25,21.25 C106.239375,9.52 96.73,0.010625 85,0 C73.27,0.010625 63.760625,9.52 63.75,21.25 C63.7553125,26.0153125 65.3809375,30.36625 68.031875,33.9096875 C38.31375,40.885 15.4753125,65.6465625 11.3634375,96.3740625 C4.8078125,98.3503125 0,104.35875 0,111.5625 C0.0053125,120.365312 7.1346875,127.5 15.9375,127.5 L154.0625,127.5 C162.865313,127.5 169.994688,120.365312 170,111.5625 C170,104.35875 165.192188,98.3503125 158.636562,96.3740625 L158.636562,96.3740625 Z" id="Fill-85"></path>
                        <path d="M85,53.125 C82.0675,53.125 79.6875,55.505 79.6875,58.4375 C79.6875,61.37 82.0675,63.75 85,63.75 C99.524375,63.7446875 112.593125,71.23 120.290938,82.6571875 C121.9325,85.0903125 125.231562,85.733125 127.664688,84.0915625 C130.097813,82.4553125 130.745937,79.1509375 129.104375,76.7178125 C119.515313,62.4803125 103.221875,53.1303125 85,53.125" id="Fill-86"></path>
                    </g>
                </g>
            </g>
        </g>
    </g>
</svg>