<?xml version="1.0" encoding="UTF-8" standalone="no"?>
<svg width="100px" height="100px" viewBox="0 0 100 100" version="1.1" xmlns="http://www.w3.org/2000/svg" xmlns:xlink="http://www.w3.org/1999/xlink">
    <!-- Generator: Sketch 39.1 (31720) - http://www.bohemiancoding.com/sketch -->
    <title>icon-fav</title>
    <desc>Created with Sketch.</desc>
    <defs></defs>
    <g id="BFC" stroke="none" stroke-width="1" fill="none" fill-rule="evenodd">
        <g id="22.-Bidding-Detail" transform="translate(-614.000000, -377.000000)">
            <g id="profile">
                <g id="chef-img">
                    <g id="icon-fav" transform="translate(614.000000, 377.000000)">
                        <circle id="Oval-10" fill="#FFFFFF" cx="50" cy="50" r="50"></circle>
                        <path d="M61.7009425,30 C57.1768294,30 52.8334208,32.1060527 50.00065,35.4341359 C47.1652791,32.1060527 42.8231706,30 38.3003575,30 C30.2921573,30 24,36.2921573 24,44.3003575 C24,54.1286032 32.840221,62.1368034 46.2292557,74.3051076 L50.00065,77.7111928 L53.7694442,74.279107 C67.159779,62.1368034 76,54.1286032 76,44.3003575 C76,36.2921573 69.7078427,30 61.7009425,30 L61.7009425,30 Z M50.2593565,70.4310108 L50.00065,70.6910173 L49.7393435,70.4310108 C37.3630341,59.2247306 29.20013,51.8145454 29.20013,44.3003575 C29.20013,39.1002275 33.1002275,35.20013 38.3003575,35.20013 C42.3031576,35.20013 46.2032551,37.7741944 47.5825896,41.3362834 L52.4434111,41.3362834 C53.7954449,37.7741944 57.6955424,35.20013 61.7009425,35.20013 C66.9010725,35.20013 70.80117,39.1002275 70.80117,44.3003575 C70.80117,51.8145454 62.6356659,59.2247306 50.2593565,70.4310108 L50.2593565,70.4310108 Z" id="icon-favorite-line" fill="#989DA2"></path>
                    </g>
                </g>
            </g>
        </g>
    </g>
</svg>