<?xml version="1.0" encoding="utf-8"?>
<!-- Generator: Adobe Illustrator 21.0.2, SVG Export Plug-In . SVG Version: 6.00 Build 0)  -->
<svg version="1.1" id="레이어_1" xmlns="http://www.w3.org/2000/svg" xmlns:xlink="http://www.w3.org/1999/xlink" x="0px"
	 y="0px" viewBox="0 0 50 37" style="enable-background:new 0 0 50 37;" xml:space="preserve">
<style type="text/css">
	.st0{fill:#FF533D;}
	.st1{fill:none;}
</style>
<title>menu-community hover</title>
<desc>Created with Sketch.</desc>
<g id="Symbols">
	<g id="menu-community-hover">
		<g id="icon" transform="translate(27.000000, 0.000000)">
			<path id="Fill-1" class="st0" d="M-9.4,10.1c-0.4-1.2-0.8-3.2,0.1-3.7c0.7-0.4,1.8,0,1.8,0C-6.8,6.6-6,6-6.1,5.3
				C-6.6,1.7-3.4,1-1.6,3.5C-1.3,4-0.7,4.1-0.2,3.8C1.7,2.8,4,2.5,5.9,3.6c-0.6-2-3-3-6.4-1.8c-3-3.1-7.3-1.8-7.7,2.5
				c-2.4-0.2-4.6,1.5-3.4,5.9H-9.4z"/>
			<path id="Fill-3" class="st0" d="M-2,8.2c-1.6-1.8-4.5-0.5-4.2,1.9h5.7c0.4-2,2.3-3.9,4.1-3.6c1.4,0.2,2,1.7,1.9,3.1
				c0,0.2,0,0.5-0.1,0.5h2c0.4-2.8-1-5-3.3-5.5C1.6,4.1-0.9,5.7-2,8.2"/>
			<path id="Fill-5" class="st0" d="M0.8,10c0.3,0.1,0.7,0,1,0C2,10,2.1,9.7,2,9.6C0.9,7.9,0,9.7,0.8,10"/>
			<path id="Fill-7" class="st0" d="M3,10c0.3,0,0.7,0.1,1,0C5,9.6,4.7,7.9,3,9.7C2.9,9.8,2.9,10,3,10"/>
			<path id="Fill-9" class="st0" d="M2.4,9.3c0,0.1,0.2,0.2,0.3,0C2.9,9,3.2,8.4,3.2,8C3.4,7,1.9,7.2,2.4,9.3"/>
			<path id="Fill-11" class="st0" d="M2.6,19h-8.8c-2.6-1.2-4.4-3.2-4.8-5.3H7.4C6.9,16.1,4.9,18.2,2.6,19L2.6,19z M-13.1,11.7
				c0,4,1.5,7.3,6.5,9.3H3c5.1-2,6.5-4.8,6.5-9.3H-13.1z"/>
		</g>
		<path id="COMMUNITY" class="st0" d="M5.5,32.8L5.5,32.8c0,0.7-0.2,1.3-0.6,1.7s-1,0.6-1.8,0.6c-0.8,0-1.4-0.2-1.9-0.7
			s-0.7-1.1-0.7-1.9v-1.3c0-0.8,0.2-1.4,0.7-1.9s1.1-0.7,1.8-0.7c0.8,0,1.4,0.2,1.9,0.6s0.7,1,0.7,1.7l0,0H4.3c0-0.4-0.1-0.7-0.3-1
			S3.5,29.5,3,29.5c-0.4,0-0.7,0.2-0.9,0.5s-0.3,0.7-0.3,1.2v1.3c0,0.5,0.1,0.9,0.4,1.2s0.6,0.5,1,0.5c0.4,0,0.7-0.1,0.9-0.3
			s0.3-0.5,0.3-1H5.5z M11.1,32.4c0,0.8-0.2,1.4-0.7,1.9s-1.1,0.8-1.9,0.8c-0.8,0-1.4-0.3-1.9-0.8s-0.7-1.2-0.7-1.9v-1.2
			c0-0.8,0.2-1.4,0.7-1.9s1.1-0.8,1.9-0.8c0.8,0,1.4,0.3,1.9,0.8s0.7,1.2,0.7,1.9V32.4z M9.8,31.2c0-0.5-0.1-0.9-0.4-1.2
			s-0.6-0.5-1-0.5c-0.4,0-0.8,0.2-1,0.5S7,30.7,7,31.2v1.2c0,0.5,0.1,0.9,0.4,1.2s0.6,0.5,1,0.5c0.4,0,0.8-0.2,1-0.5
			s0.4-0.7,0.4-1.2V31.2z M13.3,28.6l1.6,4.7h0l1.6-4.7h1.7V35H17v-1.9l0.1-2.8l0,0L15.3,35h-0.9l-1.7-4.7l0,0l0.1,2.8V35h-1.3v-6.4
			H13.3z M20.6,28.6l1.6,4.7h0l1.6-4.7h1.7V35h-1.3v-1.9l0.1-2.8l0,0L22.7,35h-0.9l-1.7-4.7l0,0l0.1,2.8V35h-1.3v-6.4H20.6z
			 M31.4,28.6v4.2c0,0.7-0.2,1.3-0.7,1.7s-1.1,0.6-1.9,0.6c-0.8,0-1.4-0.2-1.9-0.6s-0.7-0.9-0.7-1.7v-4.2h1.3v4.2
			c0,0.4,0.1,0.7,0.3,0.9s0.5,0.3,0.9,0.3c0.4,0,0.7-0.1,0.9-0.3s0.3-0.5,0.3-0.9v-4.2H31.4z M37.2,35h-1.3l-2.6-4.4l0,0V35H32v-6.4
			h1.3l2.6,4.4l0,0v-4.4h1.3V35z M39.2,35h-1.3v-6.4h1.3V35z M44.4,29.6h-1.8V35h-1.3v-5.4h-1.8v-1h4.9V29.6z M46.9,31.5L46.9,31.5
			l1.4-2.9h1.4l-2.2,4.1V35h-1.3v-2.3l-2.2-4.1h1.4L46.9,31.5z"/>
		<rect id="base" class="st1" width="50" height="37"/>
	</g>
</g>
</svg>
