<?xml version="1.0" encoding="utf-8"?>
<!-- Generator: Adobe Illustrator 21.0.2, SVG Export Plug-In . SVG Version: 6.00 Build 0)  -->
<svg version="1.1" id="레이어_1" xmlns="http://www.w3.org/2000/svg" xmlns:xlink="http://www.w3.org/1999/xlink" x="0px"
	 y="0px" viewBox="0 0 50 37" style="enable-background:new 0 0 50 37;" xml:space="preserve">
<style type="text/css">
	.st0{fill:#FF533D;}
	.st1{fill:none;}
</style>
<title>menu-news hover</title>
<desc>Created with Sketch.</desc>
<g id="Symbols">
	<g id="menu-news-hover">
		<g id="menu-news" transform="translate(26.000000, 0.000000)">
			<g id="icon-news" transform="translate(2.000000, 0.000000)">
				<g id="Layer_1">
					<g id="Production">
						<g id="Group">
							<path id="Shape" class="st0" d="M-7.1,0v16.7c0,1.3-1.1,2.4-2.4,2.4S-12,18-12,16.7V2.6c0-1.1,1.5-1.1,1.5,0V15h1.9V2.6
								c0-1.4-1.2-2.6-2.6-2.6s-2.6,1.2-2.6,2.6v14.1c0,2.4,1.9,4.3,4.3,4.3c0.1,0,9.4,0,13.1,0c2.4,0,4.3-1.9,4.3-4.3V0H-7.1
								L-7.1,0z M6,16.7c0,1.3-1.1,2.4-2.4,2.4H-6c0.5-0.8,0.8-1.5,0.8-2.4V1.9H6V16.7L6,16.7z"/>
							<rect id="Rectangle-path" x="-3.8" y="13.5" class="st0" width="8.2" height="1.9"/>
							<path id="Shape_1_" class="st0" d="M4.5,4.9h-8.2V12h8.2V4.9L4.5,4.9z M2.6,10.1h-4.5V6.8h4.5V10.1L2.6,10.1z"/>
						</g>
					</g>
				</g>
			</g>
			<path id="NEWS" class="st0" d="M-7.8,35h-1.3l-2.6-4.4l0,0V35H-13v-6.4h1.3l2.6,4.4l0,0v-4.4h1.3V35z M-2.8,32.2h-2.6V34h3.1v1
				h-4.4v-6.4h4.4v1h-3.1v1.6h2.6V32.2z M3.3,33L3.3,33l0.9-4.4h1.3L4,35H2.8l-1.2-4.2h0L0.4,35h-1.2l-1.5-6.4H-1l0.9,4.4l0,0
				l1.2-4.4h0.9L3.3,33z M9.5,33.3c0-0.2-0.1-0.4-0.3-0.6c-0.2-0.1-0.5-0.3-0.9-0.4c-0.8-0.2-1.3-0.5-1.7-0.8S6,30.8,6,30.3
				s0.2-1,0.7-1.3c0.4-0.3,1-0.5,1.7-0.5c0.7,0,1.3,0.2,1.7,0.6c0.4,0.4,0.7,0.8,0.6,1.4l0,0H9.5c0-0.3-0.1-0.5-0.3-0.7
				c-0.2-0.2-0.5-0.3-0.8-0.3c-0.3,0-0.6,0.1-0.8,0.2c-0.2,0.2-0.3,0.3-0.3,0.6c0,0.2,0.1,0.4,0.3,0.5c0.2,0.1,0.5,0.3,1,0.4
				c0.7,0.2,1.2,0.5,1.6,0.8c0.4,0.3,0.5,0.7,0.5,1.3c0,0.5-0.2,1-0.6,1.3c-0.4,0.3-1,0.5-1.7,0.5c-0.7,0-1.3-0.2-1.8-0.5
				c-0.5-0.4-0.8-0.9-0.8-1.5l0,0h1.2c0,0.4,0.1,0.7,0.3,0.8c0.2,0.2,0.6,0.3,1,0.3c0.3,0,0.6-0.1,0.8-0.2
				C9.4,33.8,9.5,33.6,9.5,33.3z"/>
		</g>
		<rect id="base" class="st1" width="50" height="37"/>
	</g>
</g>
</svg>
