<?xml version="1.0" encoding="utf-8"?>
<!-- Generator: Adobe Illustrator 21.0.2, SVG Export Plug-In . SVG Version: 6.00 Build 0)  -->
<svg version="1.1" id="레이어_1" xmlns="http://www.w3.org/2000/svg" xmlns:xlink="http://www.w3.org/1999/xlink" x="0px"
	 y="0px" viewBox="0 0 50 37" style="enable-background:new 0 0 50 37;" xml:space="preserve">
<style type="text/css">
	.st0{fill:#FF533D;}
	.st1{fill:none;}
</style>
<title>menu search hover</title>
<desc>Created with Sketch.</desc>
<g id="Symbols">
	<g id="menu-search-hover">
		<g id="menu-search" transform="translate(16.666667, 0.000000)">
			<g id="icon" transform="translate(13.000000, 0.000000)">
				<path id="Shape" class="st0" d="M5.4,19.7l-6.1-6.1c1.3-1.4,2-3.3,2-5.3c0-4.4-3.6-8-8-8c-4.4,0-8,3.6-8,8s3.6,8,8,8
					c1.6,0,3-0.5,4.2-1.2l6.2,6.2L5.4,19.7L5.4,19.7z M-12.4,8.4c0-3.2,2.6-5.7,5.7-5.7s5.7,2.6,5.7,5.7s-2.6,5.7-5.7,5.7
					C-9.8,14.1-12.4,11.5-12.4,8.4L-12.4,8.4z"/>
			</g>
			<path id="SEARCH" class="st0" d="M-4.7,33.3c0-0.2-0.1-0.4-0.3-0.6s-0.5-0.3-0.9-0.4c-0.8-0.2-1.3-0.5-1.7-0.8s-0.6-0.7-0.6-1.2
				s0.2-1,0.7-1.3s1-0.5,1.7-0.5c0.7,0,1.3,0.2,1.7,0.6s0.7,0.8,0.6,1.4l0,0h-1.2c0-0.3-0.1-0.5-0.3-0.7s-0.5-0.3-0.8-0.3
				c-0.3,0-0.6,0.1-0.8,0.2s-0.3,0.3-0.3,0.6c0,0.2,0.1,0.4,0.3,0.5s0.5,0.3,1,0.4c0.7,0.2,1.2,0.5,1.6,0.8c0.4,0.3,0.5,0.7,0.5,1.3
				c0,0.5-0.2,1-0.6,1.3c-0.4,0.3-1,0.5-1.7,0.5c-0.7,0-1.3-0.2-1.8-0.5s-0.8-0.9-0.8-1.5l0,0h1.2c0,0.4,0.1,0.7,0.3,0.8
				c0.2,0.2,0.6,0.3,1,0.3c0.3,0,0.6-0.1,0.8-0.2S-4.7,33.6-4.7,33.3z M1.4,32.2h-2.6V34h3.1v1h-4.4v-6.4h4.4v1h-3.1v1.6h2.6V32.2z
				 M5.9,33.6H3.6L3.2,35H1.9l2.2-6.4h1.3L7.6,35H6.3L5.9,33.6z M4,32.6h1.6l-0.8-2.5h0L4,32.6z M9.4,32.4V35H8.1v-6.4h2.4
				c0.7,0,1.3,0.2,1.7,0.5s0.6,0.8,0.6,1.4c0,0.3-0.1,0.6-0.3,0.9c-0.2,0.2-0.4,0.4-0.8,0.6c0.4,0.1,0.6,0.3,0.8,0.6
				c0.2,0.3,0.2,0.6,0.2,1v0.5c0,0.2,0,0.4,0.1,0.6s0.1,0.3,0.2,0.4V35h-1.3c-0.1-0.1-0.2-0.3-0.2-0.5s-0.1-0.4-0.1-0.6v-0.5
				c0-0.3-0.1-0.6-0.3-0.7c-0.2-0.2-0.4-0.3-0.7-0.3H9.4z M9.4,31.4h1.1c0.4,0,0.6-0.1,0.8-0.2c0.2-0.2,0.3-0.4,0.3-0.7
				c0-0.3-0.1-0.5-0.3-0.7c-0.2-0.2-0.4-0.3-0.8-0.3H9.4V31.4z M18.7,32.8L18.7,32.8c0,0.7-0.2,1.3-0.6,1.7c-0.4,0.4-1,0.6-1.8,0.6
				c-0.8,0-1.4-0.2-1.9-0.7c-0.5-0.5-0.7-1.1-0.7-1.9v-1.3c0-0.8,0.2-1.4,0.7-1.9c0.5-0.5,1.1-0.7,1.8-0.7c0.8,0,1.4,0.2,1.9,0.6
				c0.4,0.4,0.7,1,0.7,1.7l0,0h-1.2c0-0.4-0.1-0.7-0.3-1c-0.2-0.2-0.5-0.3-0.9-0.3c-0.4,0-0.7,0.2-0.9,0.5c-0.2,0.3-0.3,0.7-0.3,1.2
				v1.3c0,0.5,0.1,0.9,0.4,1.2c0.2,0.3,0.6,0.5,1,0.5c0.4,0,0.7-0.1,0.9-0.3c0.2-0.2,0.3-0.5,0.3-1H18.7z M24.7,35h-1.3v-2.7h-2.6
				V35h-1.3v-6.4h1.3v2.8h2.6v-2.8h1.3V35z"/>
		</g>
		<rect id="base" class="st1" width="50" height="37"/>
	</g>
</g>
</svg>
