<?xml version="1.0" encoding="utf-8"?>
<!-- Generator: Adobe Illustrator 15.0.0, SVG Export Plug-In . SVG Version: 6.00 Build 0)  -->
<!DOCTYPE svg PUBLIC "-//W3C//DTD SVG 1.1//EN" "http://www.w3.org/Graphics/SVG/1.1/DTD/svg11.dtd">
<svg version="1.1" id="Layer_1" xmlns="http://www.w3.org/2000/svg" xmlns:xlink="http://www.w3.org/1999/xlink" x="0px" y="0px"
	 width="175px" height="40px" viewBox="0 0 175 40" enable-background="new 0 0 175 40" xml:space="preserve">
<g>
	<g>
		<defs>
			<path id="SVGID_1_" d="M171.618,25.122c-0.582,0.022-1.136,0.039-1.657,0.05c-0.521,0.012-1.029,0.021-1.521,0.026
				c-0.494,0.005-0.981,0.008-1.463,0.008h-1.463c-0.293,0.571-0.621,1.235-0.984,1.993c-0.365,0.757-0.746,1.551-1.145,2.38
				c-0.398,0.831-0.796,1.669-1.193,2.515c-0.398,0.848-0.776,1.649-1.137,2.406c-0.359,0.757-0.684,1.439-0.976,2.052
				c-0.292,0.611-0.526,1.097-0.707,1.455c-0.124,0.259-0.274,0.496-0.454,0.716c-0.179,0.219-0.375,0.405-0.589,0.563
				c-0.212,0.157-0.431,0.276-0.656,0.36c-0.224,0.084-0.432,0.127-0.623,0.127c-0.269,0-0.51-0.067-0.723-0.203
				c-0.214-0.133-0.32-0.346-0.32-0.639c0-0.146,0.034-0.316,0.101-0.513c0.067-0.196,0.164-0.423,0.287-0.681l5.938-12.584h-0.893
				c-0.617,0-1.037-0.094-1.262-0.285c-0.225-0.189-0.336-0.414-0.336-0.672c0-0.271,0.141-0.53,0.42-0.783
				c0.28-0.252,0.69-0.378,1.229-0.378h1.984c0.797-1.604,1.596-2.927,2.397-3.97c0.801-1.043,1.589-1.867,2.362-2.473
				c0.774-0.606,1.527-1.026,2.264-1.262c0.734-0.235,1.438-0.354,2.111-0.354c0.312,0,0.613,0.062,0.898,0.186
				c0.287,0.123,0.539,0.308,0.758,0.555c0.219,0.247,0.396,0.558,0.529,0.934c0.135,0.375,0.202,0.816,0.202,1.32
				c0,0.482-0.067,1.015-0.202,1.598c-0.033,0.157-0.102,0.289-0.201,0.396c-0.102,0.105-0.214,0.193-0.337,0.26
				c-0.124,0.067-0.247,0.115-0.37,0.143c-0.123,0.028-0.229,0.042-0.318,0.042c-0.226,0-0.434-0.054-0.623-0.16
				c-0.19-0.106-0.286-0.271-0.286-0.496c0-0.146,0.01-0.28,0.024-0.403c0.019-0.124,0.025-0.247,0.025-0.37
				c0-0.471-0.087-0.808-0.26-1.009c-0.174-0.202-0.407-0.303-0.699-0.303c-0.348,0-0.754,0.152-1.219,0.455
				c-0.467,0.303-0.938,0.707-1.413,1.211c-0.478,0.504-0.935,1.079-1.371,1.725c-0.438,0.644-0.797,1.303-1.077,1.976h3.919
				c0.349,0,0.673,0.006,0.976,0.017c0.304,0.012,0.569,0.045,0.8,0.102c0.229,0.056,0.409,0.147,0.538,0.277
				c0.129,0.129,0.193,0.315,0.193,0.562c0,0.123-0.022,0.246-0.066,0.369c-0.045,0.123-0.121,0.238-0.229,0.346
				s-0.255,0.195-0.445,0.27C172.168,25.051,171.922,25.1,171.618,25.122z M155.723,22.43c0.93,0,1.625,0.225,2.086,0.674
				c0.459,0.447,0.689,1.07,0.689,1.867c0,0.471-0.123,0.965-0.37,1.479c-0.247,0.516-0.673,1.041-1.278,1.573
				c-0.605,0.533-1.416,1.076-2.431,1.631c-1.015,0.556-2.285,1.113-3.812,1.675c0.058,0.325,0.23,0.58,0.521,0.765
				c0.292,0.186,0.68,0.278,1.161,0.278c0.517,0,1.069-0.076,1.657-0.228c0.589-0.151,1.172-0.346,1.748-0.58
				c0.578-0.235,1.143-0.49,1.691-0.766c0.551-0.275,1.047-0.535,1.488-0.783c0.443-0.246,0.812-0.459,1.111-0.639
				c0.297-0.18,0.496-0.292,0.597-0.337c0.101-0.067,0.192-0.106,0.276-0.118c0.084-0.011,0.16-0.018,0.228-0.018
				c0.136,0,0.247,0.031,0.336,0.094c0.091,0.062,0.166,0.134,0.228,0.218s0.104,0.175,0.127,0.269
				c0.021,0.098,0.033,0.178,0.033,0.246c0,0.101-0.011,0.222-0.033,0.36c-0.023,0.142-0.107,0.3-0.252,0.479
				c-0.058,0.057-0.244,0.209-0.564,0.455c-0.318,0.246-0.73,0.537-1.236,0.875c-0.504,0.336-1.091,0.692-1.758,1.067
				s-1.374,0.722-2.119,1.035c-0.746,0.313-1.521,0.574-2.33,0.781c-0.807,0.208-1.604,0.312-2.389,0.312
				c-0.673,0-1.27-0.128-1.792-0.387c-0.521-0.258-0.964-0.605-1.329-1.043c-0.363-0.438-0.642-0.941-0.832-1.514
				c-0.191-0.572-0.285-1.172-0.285-1.801c0-0.481,0.094-1.012,0.285-1.59c0.19-0.576,0.465-1.158,0.824-1.74
				c0.359-0.584,0.799-1.152,1.32-1.707c0.521-0.556,1.107-1.047,1.758-1.473c0.65-0.427,1.365-0.769,2.145-1.025
				C154.004,22.559,154.837,22.43,155.723,22.43z M155.117,24.751c-0.057-0.011-0.105-0.017-0.151-0.017h-0.151
				c-0.426,0-0.823,0.084-1.193,0.252s-0.709,0.39-1.018,0.664c-0.309,0.275-0.584,0.586-0.824,0.934
				c-0.241,0.348-0.457,0.693-0.648,1.035c-0.189,0.342-0.35,0.67-0.479,0.982c-0.129,0.314-0.228,0.578-0.295,0.791
				c0.394-0.201,0.8-0.432,1.22-0.688c0.421-0.259,0.815-0.505,1.187-0.74c0.369-0.235,0.692-0.448,0.967-0.64
				c0.274-0.19,0.469-0.319,0.58-0.387c0.504-0.313,0.853-0.608,1.043-0.883c0.191-0.275,0.287-0.514,0.287-0.716
				c0-0.168-0.054-0.303-0.16-0.403C155.373,24.835,155.251,24.773,155.117,24.751z M131.449,32.018
				c0.269-0.572,0.578-1.207,0.925-1.908s0.698-1.396,1.051-2.086c0.353-0.69,0.688-1.347,1.001-1.969
				c0.313-0.621,0.578-1.152,0.791-1.589l5.551-10.917c0.067-0.146,0.172-0.286,0.312-0.42c0.14-0.134,0.3-0.255,0.479-0.362
				c0.178-0.106,0.369-0.19,0.571-0.252s0.404-0.093,0.606-0.093c0.492,0,0.834,0.092,1.025,0.277
				c0.19,0.186,0.286,0.412,0.286,0.682c0,0.246-0.062,0.507-0.185,0.782c-0.124,0.274-0.264,0.53-0.42,0.766
				c-0.494,0.841-0.967,1.69-1.422,2.548c-0.453,0.858-0.907,1.721-1.362,2.591s-0.912,1.732-1.371,2.591
				c-0.46,0.856-0.942,1.707-1.447,2.548c0.313-0.303,0.647-0.617,1.001-0.941c0.354-0.326,0.737-0.623,1.152-0.892
				c0.415-0.271,0.869-0.491,1.363-0.665c0.492-0.174,1.043-0.261,1.647-0.261c0.358,0,0.701,0.034,1.026,0.102
				c0.324,0.068,0.611,0.177,0.857,0.327c0.248,0.15,0.443,0.359,0.59,0.623c0.146,0.264,0.219,0.586,0.219,0.967
				c0,0.504-0.076,0.967-0.227,1.389c-0.152,0.42-0.346,0.818-0.582,1.193c-0.234,0.376-0.494,0.735-0.772,1.077
				c-0.281,0.342-0.548,0.688-0.8,1.043c-0.252,0.353-0.471,0.72-0.656,1.101s-0.301,0.797-0.346,1.246
				c0,0.022-0.002,0.045-0.008,0.066c-0.006,0.023-0.009,0.045-0.009,0.066c0,0.226,0.075,0.365,0.228,0.422
				c0.152,0.056,0.345,0.084,0.58,0.084c0.304,0,0.627-0.061,0.977-0.178c0.348-0.117,0.697-0.273,1.051-0.471
				c0.354-0.195,0.706-0.417,1.061-0.665c0.353-0.245,0.688-0.498,1.009-0.757c0.319-0.258,0.614-0.507,0.883-0.749
				c0.269-0.239,0.499-0.451,0.688-0.63c0.102-0.09,0.209-0.157,0.32-0.202c0.112-0.044,0.219-0.067,0.319-0.067
				c0.202,0,0.374,0.076,0.515,0.229c0.139,0.15,0.209,0.355,0.209,0.613c0,0.236-0.08,0.505-0.244,0.808
				c-0.162,0.304-0.439,0.604-0.832,0.908c-0.617,0.539-1.244,1.055-1.883,1.548c-0.641,0.494-1.285,0.932-1.936,1.312
				c-0.651,0.381-1.299,0.684-1.943,0.908c-0.644,0.225-1.275,0.336-1.892,0.336c-0.796,0-1.437-0.182-1.917-0.546
				c-0.482-0.364-0.725-0.938-0.725-1.725c0-0.572,0.099-1.113,0.295-1.623c0.195-0.511,0.437-1.004,0.724-1.479
				c0.286-0.478,0.591-0.938,0.917-1.381c0.324-0.441,0.611-0.877,0.857-1.304c0.135-0.19,0.238-0.366,0.312-0.529
				s0.108-0.339,0.108-0.53c0-0.168-0.045-0.306-0.133-0.412c-0.091-0.105-0.23-0.159-0.422-0.159c-0.662,0-1.273,0.163-1.833,0.487
				c-0.561,0.326-1.077,0.74-1.547,1.246c-0.471,0.504-0.907,1.057-1.312,1.655c-0.404,0.601-0.78,1.177-1.127,1.726
				c-0.157,0.246-0.317,0.528-0.479,0.85c-0.162,0.32-0.331,0.646-0.504,0.984c-0.173,0.336-0.354,0.67-0.547,1
				c-0.19,0.332-0.39,0.625-0.597,0.884c-0.209,0.258-0.426,0.465-0.656,0.622c-0.23,0.156-0.469,0.234-0.715,0.234
				c-0.394,0-0.696-0.115-0.909-0.345c-0.212-0.229-0.319-0.519-0.319-0.866c0-0.258,0.044-0.529,0.135-0.816
				C131.102,32.783,131.248,32.434,131.449,32.018z M139.107,4.326c0,0.432-0.067,0.953-0.205,1.562
				c-0.135,0.609-0.332,1.242-0.588,1.898c-0.256,0.657-0.564,1.31-0.926,1.959c-0.359,0.648-0.772,1.233-1.236,1.754
				c-0.465,0.521-0.971,0.941-1.514,1.262c-0.545,0.321-1.13,0.48-1.755,0.48c-0.144,0-0.333-0.012-0.563-0.036
				c-0.232-0.024-0.465-0.081-0.697-0.168c-0.232-0.088-0.434-0.22-0.602-0.396c-0.168-0.176-0.252-0.409-0.252-0.697
				c0-0.193,0.051-0.417,0.156-0.673c0.104-0.256,0.292-0.553,0.564-0.889c0.289-0.321,0.601-0.701,0.938-1.142
				c0.338-0.441,0.641-0.901,0.913-1.382s0.501-0.953,0.685-1.418c0.185-0.464,0.276-0.881,0.276-1.249
				c0-0.465-0.108-0.837-0.323-1.118c-0.218-0.28-0.59-0.42-1.117-0.42c-0.689,0-1.467,0.225-2.332,0.673
				c-0.865,0.448-1.771,1.065-2.715,1.85c-0.945,0.785-1.907,1.702-2.883,2.751c-0.979,1.049-1.924,2.171-2.837,3.364
				s-1.774,2.436-2.583,3.725c-0.809,1.29-1.514,2.563-2.115,3.821c-0.601,1.259-1.072,2.468-1.418,3.628
				c-0.344,1.162-0.517,2.215-0.517,3.161c0,1.169,0.313,2.106,0.938,2.812s1.658,1.058,3.1,1.058c0.673,0,1.674-0.261,3.004-0.781
				s2.439-1.041,3.328-1.562c0.889-0.521,1.786-1.098,2.691-1.73c0.904-0.633,1.766-1.24,2.582-1.826
				c0.816-0.585,1.562-1.113,2.234-1.586c0.674-0.473,1.227-0.805,1.658-0.996c0.081-0.064,0.176-0.097,0.288-0.097
				c0.241,0,0.405,0.196,0.493,0.588s0.133,0.838,0.133,1.334c0,0.272-0.037,0.604-0.109,0.997c-0.07,0.393-0.3,0.846-0.685,1.357
				c-0.177,0.209-0.505,0.562-0.985,1.058c-0.48,0.497-1.082,1.058-1.803,1.683s-1.546,1.273-2.475,1.946
				c-0.93,0.673-1.936,1.289-3.017,1.851c-1.082,0.561-2.476,1.113-4.181,1.658c-1.707,0.543-3.192,0.816-4.458,0.816
				c-1.49,0-2.765-0.18-3.821-0.541c-1.057-0.359-1.922-0.861-2.595-1.502s-1.166-1.406-1.478-2.295
				c-0.312-0.889-0.469-1.862-0.469-2.92c0-1.313,0.2-2.723,0.602-4.229c0.399-1.506,0.957-3.036,1.67-4.59
				c0.711-1.554,1.562-3.108,2.547-4.662c0.984-1.554,2.066-3.04,3.244-4.458c1.177-1.417,2.431-2.736,3.761-3.953
				c1.33-1.218,2.69-2.275,4.085-3.173c1.395-0.896,2.796-1.602,4.206-2.114C131.361,0.256,132.748,0,134.109,0
				c0.673,0,1.312,0.076,1.922,0.229c0.609,0.152,1.142,0.396,1.598,0.732c0.457,0.336,0.816,0.782,1.082,1.333
				C138.977,2.848,139.107,3.524,139.107,4.326z M91.712,24.869c0.437-0.27,0.89-0.516,1.354-0.739
				c0.466-0.226,0.916-0.418,1.354-0.581c0.438-0.162,0.855-0.291,1.253-0.387s0.754-0.143,1.068-0.143
				c0.505,0,0.895,0.121,1.169,0.36c0.275,0.241,0.412,0.647,0.412,1.22c0,0.123-0.006,0.256-0.018,0.396
				c-0.011,0.14-0.033,0.288-0.066,0.445c-0.057,0.291-0.225,0.634-0.504,1.025c-0.28,0.393-0.608,0.803-0.984,1.229
				c-0.375,0.427-0.779,0.854-1.211,1.287s-0.83,0.83-1.193,1.194c-0.365,0.365-0.668,0.681-0.91,0.95
				c-0.24,0.27-0.361,0.454-0.361,0.555c0,0.09,0.006,0.151,0.017,0.186c0.011,0.033,0.062,0.051,0.151,0.051
				c0.605-0.258,1.281-0.568,2.025-0.934c0.746-0.364,1.489-0.737,2.229-1.119c0.739-0.381,1.44-0.754,2.103-1.119
				c0.662-0.364,1.224-0.682,1.683-0.95c0.101-0.056,0.204-0.104,0.312-0.144c0.106-0.038,0.204-0.059,0.295-0.059
				c0.201,0,0.369,0.067,0.504,0.202c0.135,0.134,0.203,0.313,0.203,0.539c0,0.258-0.109,0.552-0.328,0.883
				c-0.22,0.331-0.586,0.677-1.103,1.035c-0.394,0.247-0.833,0.524-1.321,0.833s-0.998,0.628-1.529,0.958
				c-0.533,0.332-1.071,0.654-1.615,0.967c-0.543,0.314-1.068,0.595-1.573,0.841c-0.504,0.248-0.979,0.446-1.422,0.599
				c-0.442,0.151-0.826,0.227-1.152,0.227c-0.774,0-1.354-0.186-1.741-0.556c-0.387-0.37-0.58-0.846-0.58-1.43
				c0-0.09,0.006-0.157,0.017-0.202c0.079-0.493,0.226-0.97,0.438-1.431c0.213-0.459,0.453-0.896,0.723-1.312
				c0.27-0.415,0.55-0.812,0.841-1.187c0.292-0.375,0.56-0.729,0.799-1.06c0.241-0.331,0.44-0.636,0.597-0.917
				c0.158-0.279,0.236-0.538,0.236-0.773c0-0.056-0.011-0.111-0.033-0.168c-0.022-0.056-0.074-0.084-0.152-0.084
				c-0.135,0-0.355,0.051-0.664,0.151s-0.637,0.235-0.983,0.403c-0.347,0.169-0.679,0.361-0.993,0.58
				c-0.312,0.22-0.537,0.453-0.673,0.699c-0.179,0.313-0.386,0.713-0.622,1.193c-0.234,0.482-0.479,0.987-0.732,1.514
				c-0.252,0.528-0.495,1.049-0.73,1.564c-0.234,0.518-0.438,0.959-0.605,1.329c-0.135,0.325-0.311,0.616-0.53,0.875
				c-0.219,0.258-0.457,0.478-0.714,0.655c-0.258,0.18-0.521,0.319-0.791,0.42c-0.269,0.102-0.516,0.152-0.74,0.152
				c-0.259,0-0.463-0.068-0.614-0.203c-0.151-0.134-0.227-0.353-0.227-0.656c0-0.123,0.02-0.276,0.059-0.463
				c0.039-0.186,0.12-0.389,0.244-0.613c0.202-0.381,0.407-0.797,0.614-1.245c0.207-0.449,0.446-0.962,0.715-1.54
				c0.269-0.576,0.581-1.238,0.934-1.984c0.353-0.744,0.771-1.605,1.253-2.582c-0.157-0.135-0.289-0.3-0.396-0.496
				c-0.107-0.195-0.159-0.439-0.159-0.731c0-0.269,0.056-0.501,0.168-0.698c0.112-0.195,0.263-0.355,0.454-0.479
				c0.19-0.125,0.412-0.217,0.665-0.277c0.251-0.062,0.518-0.093,0.798-0.093c0.292,0,0.583,0.024,0.875,0.075
				s0.552,0.127,0.782,0.228c0.23,0.103,0.418,0.226,0.562,0.37c0.146,0.146,0.22,0.314,0.22,0.504c0,0.034-0.011,0.079-0.034,0.135
				c-0.021,0.057-0.047,0.117-0.076,0.186s-0.053,0.129-0.076,0.185c-0.021,0.058-0.033,0.101-0.033,0.136
				c0,0.022,0.006,0.033,0.017,0.033h0.017L91.712,24.869z M78.895,22.447c0.426,0,0.883,0.056,1.371,0.169
				c0.487,0.11,0.939,0.303,1.354,0.571c0.415,0.27,0.76,0.625,1.035,1.067c0.274,0.442,0.412,0.989,0.412,1.64
				c0,0.336-0.045,0.722-0.135,1.152c-0.09,0.432-0.225,0.883-0.403,1.354c0.111,0.136,0.24,0.23,0.387,0.287
				c0.146,0.056,0.303,0.084,0.471,0.084c0.236,0,0.496-0.067,0.783-0.203c0.286-0.135,0.58-0.309,0.883-0.521
				c0.303-0.212,0.605-0.454,0.909-0.724c0.303-0.27,0.588-0.538,0.858-0.809c0.269-0.269,0.513-0.523,0.732-0.765
				c0.219-0.241,0.4-0.446,0.546-0.614c0.078-0.078,0.174-0.117,0.286-0.117c0.157,0,0.298,0.082,0.421,0.244
				s0.186,0.389,0.186,0.682c0,0.291-0.088,0.628-0.262,1.009c-0.172,0.382-0.496,0.78-0.966,1.194
				c-0.269,0.291-0.578,0.629-0.925,1.01c-0.348,0.381-0.718,0.74-1.11,1.076c-0.393,0.336-0.802,0.623-1.228,0.857
				c-0.426,0.235-0.853,0.354-1.278,0.354c-0.291,0-0.575-0.045-0.85-0.135c-0.274-0.09-0.552-0.235-0.833-0.438
				c-0.404,0.628-0.863,1.2-1.379,1.716c-0.516,0.517-1.091,0.958-1.725,1.329c-0.633,0.37-1.317,0.659-2.052,0.866
				c-0.734,0.208-1.517,0.312-2.347,0.312c-0.314,0-0.679-0.061-1.094-0.185c-0.414-0.123-0.81-0.328-1.186-0.614
				s-0.692-0.658-0.95-1.119c-0.258-0.459-0.387-1.02-0.387-1.682c0-0.448,0.073-0.986,0.219-1.615
				c0.146-0.628,0.368-1.275,0.664-1.943c0.297-0.666,0.673-1.328,1.127-1.983c0.454-0.656,0.995-1.245,1.623-1.767
				c0.629-0.521,1.346-0.941,2.153-1.262S77.908,22.447,78.895,22.447z M78.02,25.407c-0.528,0-1.035,0.132-1.522,0.396
				c-0.488,0.264-0.92,0.611-1.296,1.043s-0.676,0.92-0.9,1.463c-0.224,0.545-0.336,1.103-0.336,1.674
				c0,0.213,0.017,0.445,0.051,0.699c0.033,0.252,0.104,0.486,0.21,0.707c0.106,0.217,0.261,0.4,0.463,0.545
				c0.202,0.146,0.471,0.219,0.807,0.219c0.516,0,1.018-0.137,1.506-0.411c0.487-0.274,0.922-0.634,1.303-1.076
				c0.382-0.442,0.685-0.944,0.909-1.506c0.224-0.562,0.336-1.127,0.336-1.699c0-0.224-0.014-0.457-0.042-0.698
				c-0.028-0.24-0.095-0.462-0.202-0.664c-0.106-0.201-0.261-0.367-0.462-0.496C78.643,25.473,78.367,25.407,78.02,25.407z
				 M74.672,25.122c-0.583,0.022-1.135,0.039-1.657,0.05c-0.521,0.012-1.028,0.021-1.522,0.026
				c-0.494,0.005-0.981,0.008-1.464,0.008h-1.463c-0.292,0.571-0.619,1.235-0.984,1.993c-0.364,0.757-0.745,1.551-1.144,2.38
				c-0.398,0.831-0.796,1.669-1.195,2.515c-0.398,0.848-0.777,1.649-1.135,2.406s-0.685,1.439-0.976,2.052
				c-0.291,0.611-0.526,1.097-0.707,1.455c-0.123,0.259-0.275,0.496-0.454,0.716c-0.179,0.219-0.375,0.405-0.589,0.563
				c-0.213,0.157-0.431,0.276-0.656,0.36s-0.432,0.127-0.623,0.127c-0.269,0-0.51-0.067-0.723-0.203
				c-0.213-0.133-0.319-0.346-0.319-0.639c0-0.146,0.034-0.316,0.101-0.513s0.163-0.423,0.286-0.681l5.938-12.584h-0.892
				c-0.616,0-1.037-0.094-1.262-0.285c-0.224-0.189-0.336-0.414-0.336-0.672c0-0.271,0.141-0.53,0.42-0.783
				c0.281-0.252,0.69-0.378,1.228-0.378h1.985c0.796-1.604,1.595-2.927,2.397-3.97c0.802-1.043,1.59-1.867,2.363-2.473
				c0.774-0.605,1.528-1.026,2.263-1.262c0.735-0.236,1.438-0.354,2.111-0.354c0.313,0,0.613,0.062,0.9,0.186
				c0.285,0.123,0.538,0.308,0.756,0.555c0.22,0.247,0.396,0.558,0.53,0.934c0.135,0.375,0.202,0.816,0.202,1.32
				c0,0.482-0.067,1.015-0.202,1.598c-0.033,0.157-0.101,0.289-0.202,0.396c-0.101,0.105-0.213,0.193-0.336,0.26
				c-0.124,0.067-0.246,0.115-0.37,0.143c-0.124,0.028-0.23,0.042-0.319,0.042c-0.225,0-0.432-0.054-0.623-0.16
				c-0.19-0.106-0.286-0.271-0.286-0.496c0-0.146,0.009-0.28,0.025-0.403c0.018-0.124,0.025-0.247,0.025-0.37
				c0-0.471-0.087-0.808-0.261-1.009c-0.174-0.201-0.406-0.303-0.698-0.303c-0.348,0-0.754,0.152-1.22,0.455
				c-0.465,0.303-0.936,0.707-1.413,1.211c-0.476,0.504-0.933,1.079-1.37,1.725c-0.438,0.644-0.796,1.303-1.077,1.976h3.92
				c0.347,0,0.673,0.006,0.976,0.017c0.303,0.012,0.569,0.045,0.799,0.102c0.23,0.056,0.409,0.147,0.539,0.277
				c0.128,0.129,0.193,0.315,0.193,0.562c0,0.123-0.022,0.246-0.067,0.369s-0.121,0.238-0.227,0.346s-0.255,0.195-0.446,0.27
				C75.22,25.051,74.975,25.1,74.672,25.122z M48.465,24.684c-0.673,0.022-1.379,0.168-2.12,0.438
				c-0.852,0.292-1.631,0.728-2.338,1.304c-0.706,0.577-1.304,1.286-1.791,2.129c-0.488,0.84-0.766,1.805-0.833,2.893
				c0,0.449,0.191,0.673,0.572,0.673c0.471,0,0.919-0.099,1.346-0.294c0.426-0.196,0.833-0.459,1.219-0.791
				c0.388-0.33,0.749-0.708,1.086-1.135c0.336-0.426,0.647-0.869,0.933-1.33c0.287-0.459,0.544-0.916,0.774-1.37
				c0.229-0.455,0.429-0.877,0.597-1.271c0.056-0.123,0.134-0.297,0.236-0.521C48.234,25.195,48.342,24.953,48.465,24.684z
				 M48.97,31.261c-0.012,0.022-0.017,0.05-0.017,0.085c0,0.033-0.005,0.062-0.017,0.084c0,0.201,0.051,0.411,0.151,0.631
				c0.102,0.219,0.264,0.328,0.488,0.328c0.089,0,0.157-0.012,0.202-0.035c0.639-0.189,1.287-0.492,1.943-0.908
				c0.656-0.414,1.287-0.868,1.893-1.362c0.605-0.493,1.163-0.998,1.673-1.515c0.51-0.516,0.934-0.976,1.271-1.379
				c0.157-0.19,0.331-0.287,0.521-0.287c0.168,0,0.316,0.08,0.446,0.236c0.129,0.157,0.193,0.37,0.193,0.639
				c0,0.215-0.059,0.467-0.177,0.758c-0.117,0.292-0.311,0.605-0.58,0.941c-0.662,0.729-1.341,1.431-2.036,2.104
				c-0.695,0.673-1.396,1.27-2.103,1.792c-0.706,0.521-1.41,0.938-2.111,1.253s-1.387,0.471-2.06,0.471
				c-0.818,0-1.463-0.231-1.935-0.697c-0.471-0.465-0.707-1.164-0.707-2.094v-0.178c0-0.062,0.006-0.12,0.017-0.177
				c-0.258,0.471-0.588,0.899-0.992,1.286c-0.404,0.388-0.847,0.719-1.329,0.994c-0.481,0.274-0.981,0.487-1.497,0.639
				c-0.516,0.152-1.015,0.227-1.497,0.227c-0.415,0-0.796-0.056-1.144-0.168c-0.348-0.111-0.647-0.291-0.9-0.537
				c-0.252-0.248-0.448-0.562-0.588-0.942c-0.14-0.382-0.21-0.841-0.21-1.38c0-0.941,0.146-1.836,0.438-2.684
				c0.291-0.846,0.679-1.626,1.161-2.338c0.482-0.712,1.035-1.352,1.657-1.917c0.623-0.565,1.268-1.048,1.935-1.446
				c0.667-0.399,1.331-0.705,1.993-0.916c0.662-0.215,1.268-0.32,1.817-0.32c0.639,0,1.188,0.105,1.649,0.32
				c0.224,0.11,0.432,0.262,0.622,0.453c0.045-0.101,0.09-0.197,0.135-0.285c0.112-0.271,0.213-0.502,0.303-0.699
				c0.089-0.195,0.151-0.338,0.185-0.428c0.034-0.102,0.129-0.338,0.286-0.707c0.157-0.371,0.339-0.806,0.547-1.305
				c0.207-0.499,0.432-1.034,0.673-1.606c0.241-0.571,0.463-1.11,0.665-1.614c0.202-0.505,0.375-0.939,0.521-1.304
				c0.145-0.365,0.235-0.597,0.269-0.698c0.078-0.281,0.185-0.553,0.319-0.816c0.135-0.263,0.294-0.493,0.48-0.689
				c0.185-0.197,0.4-0.354,0.647-0.471c0.247-0.118,0.527-0.177,0.842-0.177c0.426,0,0.778,0.092,1.06,0.277
				c0.28,0.186,0.42,0.541,0.42,1.068c0,0.213-0.029,0.432-0.084,0.656c-0.056,0.224-0.121,0.442-0.193,0.656
				c-0.073,0.212-0.152,0.423-0.235,0.631c-0.084,0.207-0.16,0.4-0.228,0.58c-0.561,1.121-1.149,2.341-1.766,3.659
				c-0.618,1.316-1.228,2.643-1.834,3.978c-0.605,1.334-1.183,2.636-1.732,3.902C49.866,29.098,49.385,30.241,48.97,31.261z
				 M32.854,23.911c0.19-0.313,0.409-0.538,0.656-0.673c0.247-0.135,0.5-0.202,0.757-0.202c0.426,0,0.794,0.138,1.102,0.412
				c0.309,0.274,0.463,0.625,0.463,1.051c-0.011,0.103-0.026,0.202-0.042,0.303c-0.018,0.103-0.054,0.202-0.109,0.304
				c-0.156,0.291-0.286,0.539-0.387,0.74s-0.194,0.391-0.277,0.563c-0.084,0.173-0.165,0.344-0.244,0.513
				c-0.079,0.168-0.173,0.37-0.286,0.605c-0.135,0.279-0.286,0.586-0.455,0.916c-0.168,0.332-0.328,0.671-0.479,1.019
				c-0.151,0.349-0.28,0.688-0.386,1.026c-0.106,0.337-0.16,0.645-0.16,0.925c0,0.303,0.075,0.502,0.228,0.597
				c0.15,0.096,0.367,0.145,0.647,0.145c0.314,0,0.643-0.067,0.984-0.202c0.342-0.136,0.688-0.308,1.035-0.521
				c0.348-0.214,0.69-0.457,1.026-0.731c0.337-0.274,0.654-0.552,0.951-0.833c0.297-0.28,0.572-0.549,0.823-0.807
				c0.253-0.259,0.463-0.488,0.631-0.69c0.225-0.213,0.449-0.319,0.673-0.319c0.202,0,0.368,0.09,0.497,0.27s0.193,0.41,0.193,0.689
				c0,0.258-0.064,0.532-0.193,0.824s-0.339,0.566-0.631,0.824c-0.572,0.583-1.155,1.141-1.75,1.674
				c-0.594,0.533-1.203,1.004-1.824,1.413c-0.623,0.409-1.248,0.737-1.876,0.983c-0.628,0.248-1.262,0.371-1.901,0.371
				c-0.908,0-1.623-0.232-2.145-0.699c-0.521-0.465-0.782-1.19-0.782-2.178c0-0.516,0.073-1.021,0.219-1.514
				s0.319-0.973,0.521-1.438s0.416-0.914,0.639-1.346c0.224-0.432,0.416-0.844,0.572-1.236c0.056-0.146,0.155-0.371,0.294-0.674
				c0.14-0.303,0.29-0.611,0.446-0.925C32.463,24.717,32.652,24.325,32.854,23.911z M34.705,20.125c0-0.258,0.048-0.524,0.143-0.799
				c0.096-0.274,0.239-0.524,0.429-0.749c0.19-0.225,0.429-0.41,0.716-0.555c0.285-0.146,0.625-0.219,1.017-0.219
				c0.651,0,1.105,0.126,1.363,0.378c0.258,0.253,0.387,0.569,0.387,0.951c0,0.213-0.042,0.448-0.126,0.707
				c-0.083,0.257-0.21,0.496-0.378,0.716c-0.168,0.217-0.387,0.399-0.656,0.545c-0.269,0.146-0.589,0.219-0.959,0.219
				c-0.695,0-1.182-0.108-1.463-0.326C34.896,20.773,34.738,20.484,34.705,20.125z M17.494,17.062
				c-0.721,1.634-1.398,3.1-2.031,4.397c-0.632,1.298-1.229,2.488-1.79,3.568c-0.561,1.082-1.093,2.092-1.598,3.029
				c-0.505,0.937-0.997,1.854-1.478,2.75c1.858-0.16,3.592-0.483,5.202-0.973c1.61-0.488,3.012-1.093,4.206-1.814
				c1.194-0.721,2.131-1.529,2.812-2.427c0.68-0.897,1.021-1.842,1.021-2.835c0-0.449-0.1-0.922-0.3-1.418
				c-0.2-0.497-0.541-0.994-1.021-1.49c-0.48-0.497-1.129-0.985-1.946-1.466C19.754,17.903,18.728,17.462,17.494,17.062z
				 M18.816,12.472c1.426-0.577,2.675-1.17,3.749-1.778c1.073-0.609,1.97-1.214,2.691-1.814c0.721-0.601,1.266-1.182,1.634-1.742
				c0.369-0.561,0.552-1.073,0.552-1.538c0-0.16-0.08-0.345-0.239-0.553c-0.161-0.208-0.405-0.4-0.733-0.577
				c-0.329-0.176-0.741-0.325-1.238-0.445s-1.073-0.18-1.73-0.18c-1.763,0-3.396,0.212-4.902,0.637
				c-1.506,0.424-2.876,0.94-4.109,1.55c-1.233,0.61-2.323,1.246-3.268,1.91c-0.945,0.665-1.738,1.246-2.379,1.742
				c-0.4,0.304-0.75,0.604-1.045,0.901c-0.296,0.297-0.585,0.561-0.865,0.793c-0.28,0.232-0.581,0.421-0.9,0.565
				c-0.321,0.144-0.705,0.216-1.154,0.216c-0.673,0-1.197-0.16-1.574-0.481c-0.376-0.32-0.565-0.769-0.565-1.345
				c0-0.689,0.272-1.422,0.817-2.199c0.545-0.777,1.298-1.55,2.259-2.319s2.091-1.502,3.388-2.199
				c1.298-0.697,2.696-1.31,4.193-1.838c1.498-0.529,3.06-0.953,4.686-1.274c1.626-0.32,3.256-0.48,4.89-0.48
				c1.683,0,3.132,0.136,4.35,0.408c1.217,0.272,2.214,0.649,2.992,1.13s1.354,1.049,1.73,1.706c0.376,0.657,0.564,1.37,0.564,2.139
				c0,0.769-0.256,1.57-0.769,2.403c-0.513,0.833-1.246,1.666-2.199,2.499s-2.115,1.631-3.484,2.392
				c-1.369,0.761-2.912,1.453-4.626,2.078c1.698,0.561,3.08,1.149,4.145,1.766c1.066,0.617,1.899,1.258,2.5,1.922
				c0.601,0.665,1.005,1.354,1.213,2.066c0.208,0.713,0.312,1.445,0.312,2.199c0,1.104-0.304,2.194-0.914,3.268
				c-0.608,1.074-1.453,2.087-2.535,3.04c-1.081,0.954-2.362,1.835-3.844,2.644c-1.482,0.81-3.096,1.506-4.842,2.092
				c-1.746,0.584-3.589,1.041-5.527,1.369s-3.9,0.492-5.887,0.492c-0.705,0-1.418-0.039-2.138-0.119
				c-0.722-0.08-1.382-0.225-1.983-0.434c-0.601-0.208-1.089-0.488-1.465-0.841C0.188,33.891,0,33.434,0,32.874
				c0-0.063,0.004-0.124,0.012-0.181c0.008-0.057,0.021-0.125,0.037-0.204c0.064-0.128,0.136-0.284,0.216-0.468
				c0.081-0.186,0.264-0.365,0.553-0.541c0.288-0.178,0.74-0.326,1.357-0.444c0.617-0.12,1.502-0.181,2.655-0.181
				c2.003-3.668,3.657-6.828,4.962-9.48c1.305-2.651,2.399-4.834,3.28-6.548c0.882-1.714,1.622-2.98,2.223-3.797
				c0.601-0.817,1.189-1.226,1.767-1.226c0.257,0,0.505,0.04,0.745,0.121c0.24,0.081,0.452,0.188,0.637,0.325
				c0.184,0.136,0.332,0.304,0.444,0.504c0.112,0.2,0.168,0.42,0.168,0.661c-0.128,0.16-0.2,0.324-0.216,0.492
				C18.824,12.075,18.816,12.263,18.816,12.472z"/>
		</defs>
		<use xlink:href="#SVGID_1_"  overflow="visible" fill="#3A3A3A"/>
		<clipPath id="SVGID_2_">
			<use xlink:href="#SVGID_1_"  overflow="visible"/>
		</clipPath>
		<rect x="-2.461" y="-2.461" clip-path="url(#SVGID_2_)" fill="#3A3A3A" width="179.921" height="44.695"/>
	</g>
</g>
</svg>
