<?xml version="1.0" encoding="utf-8"?>
<!-- Generator: Adobe Illustrator 15.0.0, SVG Export Plug-In . SVG Version: 6.00 Build 0)  -->
<!DOCTYPE svg PUBLIC "-//W3C//DTD SVG 1.1//EN" "http://www.w3.org/Graphics/SVG/1.1/DTD/svg11.dtd">
<svg version="1.1" id="Layer_1" xmlns="http://www.w3.org/2000/svg" xmlns:xlink="http://www.w3.org/1999/xlink" x="0px" y="0px"
	 width="17px" height="16px" viewBox="0 0 17 16" enable-background="new 0 0 17 16" xml:space="preserve">
<title>icon-favorite-line</title>
<desc>Created with Sketch.</desc>
<g id="BFC">
	<g id="_x32_1.-Bidding" transform="translate(-493.000000, -1001.000000)">
		<g id="_x23_biding-item" transform="translate(0.000000, 943.000000)">
			<g id="text" transform="translate(151.204819, 2.436578)">
				<g id="summary" transform="translate(1.795181, 42.000000)">
					<g id="fav" transform="translate(340.000000, 5.000000)">
						<path id="icon-favorite-line" fill="#C7C7CD" d="M12.324,8.563c-1.479,0-2.899,0.695-3.824,1.793
							C7.573,9.259,6.153,8.563,4.675,8.563C2.057,8.563,0,10.64,0,13.282c0,3.243,2.89,5.886,7.267,9.901L8.5,24.306l1.231-1.132
							C14.109,19.168,17,16.525,17,13.282C17,10.64,14.943,8.563,12.324,8.563L12.324,8.563z M8.584,21.904L8.5,21.989l-0.085-0.085
							C4.369,18.207,1.7,15.762,1.7,13.282c0-1.716,1.274-3.003,2.975-3.003c1.309,0,2.583,0.85,3.035,2.024h1.589
							c0.441-1.175,1.717-2.024,3.025-2.024c1.701,0,2.975,1.287,2.975,3.003C15.299,15.762,12.631,18.207,8.584,21.904
							L8.584,21.904z"/>
					</g>
				</g>
			</g>
		</g>
	</g>
</g>
</svg>
