<?xml version="1.0" encoding="UTF-8" standalone="no"?>
<svg width="50px" height="50px" viewBox="0 0 50 50" version="1.1" xmlns="http://www.w3.org/2000/svg" xmlns:xlink="http://www.w3.org/1999/xlink">
    <!-- Generator: Sketch 39.1 (31720) - http://www.bohemiancoding.com/sketch -->
    <title>icon-photo</title>
    <desc>Created with Sketch.</desc>
    <defs></defs>
    <g id="BFC" stroke="none" stroke-width="1" fill="none" fill-rule="evenodd">
        <g id="42.-fill-profile-get-a-job" transform="translate(-452.000000, -319.000000)">
            <g id="take-a-photo" transform="translate(245.000000, 130.000000)">
                <g id="icon-photo" transform="translate(207.000000, 189.000000)">
                    <circle id="Oval-10" fill="#FF533D" cx="25" cy="25" r="25"></circle>
                    <g id="Icon" transform="translate(11.000000, 13.000000)" stroke="#FFFFFF" stroke-linecap="round" stroke-linejoin="round">
                        <path d="M20.7142857,13.2142857 C20.7142857,16.4721429 18.1557143,19.1128571 15,19.1128571 C11.8442857,19.1128571 9.28571429,16.4721429 9.28571429,13.2142857 C9.28571429,9.95642857 11.8442857,7.31571429 15,7.31571429 C18.1557143,7.31571429 20.7142857,9.95642857 20.7142857,13.2142857 L20.7142857,13.2142857 Z" id="Stroke-142" stroke-width="2"></path>
                        <polyline id="Stroke-144" stroke-width="2.5" points="7.85714286 4.28571429 7.94642857 4.28571429 0 4.28571429 0 24.2857143 30 24.2857143 30 4.28571429 22.8571429 4.28571429 22.2321429 4.28571429 20.0892857 0 10.0892857 0 7.94642857 4.28571429"></polyline>
                    </g>
                </g>
            </g>
        </g>
    </g>
</svg>