<?xml version="1.0" encoding="UTF-8" standalone="no"?>
<svg width="35px" height="32px" viewBox="0 0 35 32" version="1.1" xmlns="http://www.w3.org/2000/svg" xmlns:xlink="http://www.w3.org/1999/xlink">
    <!-- Generator: Sketch 39.1 (31720) - http://www.bohemiancoding.com/sketch -->
    <title>Icon salary</title>
    <desc>Created with Sketch.</desc>
    <defs></defs>
    <g id="BFC" stroke="none" stroke-width="1" fill="none" fill-rule="evenodd" stroke-linecap="round" stroke-linejoin="round">
        <g id="22.-Bidding-Detail" transform="translate(-389.000000, -692.000000)" stroke="#989DA2" stroke-width="2">
            <g id="profile">
                <g id="info" transform="translate(62.000000, 568.000000)">
                    <g id="info2" transform="translate(328.000000, 0.000000)">
                        <g id="Icon-salary" transform="translate(0.000000, 125.000000)">
                            <path d="M0,8.11316071 L4.79761905,0.373517857 C4.79761905,0.060125 5.16130952,-0.000232142856 5.61011905,-0.000232142856 L27.6636905,-0.000232142856 C28.1125,-0.000232142856 28.4761905,0.060125 28.4761905,0.373517857 L32.5,8.2098869" id="Stroke-396"></path>
                            <path d="M15.1915833,28.5616964 L0.16575,9.50818452 C-0.30472619,8.89997024 0.283369048,8.51151786 1.22432143,8.51151786 L31.2759881,8.51151786 C32.2169405,8.51151786 32.8050357,8.89997024 32.3345595,9.50818452 L17.3087262,28.7474107 C16.83825,29.355625 15.6620595,29.1699107 15.1915833,28.5616964 L15.1915833,28.5616964 Z" id="Stroke-398"></path>
                            <path d="M17.3084167,28.5616964 L23.7472857,1.16032738" id="Stroke-400"></path>
                            <path d="M9.543625,1.16071429 L15.6721964,28.9110714" id="Stroke-402"></path>
                        </g>
                    </g>
                </g>
            </g>
        </g>
    </g>
</svg>