<?xml version="1.0" encoding="UTF-8" standalone="no"?>
<svg width="28px" height="35px" viewBox="0 0 28 35" version="1.1" xmlns="http://www.w3.org/2000/svg" xmlns:xlink="http://www.w3.org/1999/xlink">
    <!-- Generator: Sketch 39.1 (31720) - http://www.bohemiancoding.com/sketch -->
    <title>Icon location</title>
    <desc>Created with Sketch.</desc>
    <defs></defs>
    <g id="BFC" stroke="none" stroke-width="1" fill="none" fill-rule="evenodd" stroke-linecap="round" stroke-linejoin="round">
        <g id="22.-Bidding-Detail" transform="translate(-65.000000, -691.000000)" stroke="#989DA2" stroke-width="2">
            <g id="profile">
                <g id="info" transform="translate(62.000000, 568.000000)">
                    <g id="info1">
                        <g id="Icon-location" transform="translate(4.750000, 124.000000)">
                            <path d="M12.5,0 C19.4039062,0 25,5.46640625 25,12.209375 C25,14.9445312 24.0789062,17.4695313 22.5242187,19.5046875" id="Stroke-350"></path>
                            <path d="M16.40625,12.2092969 C16.40625,14.3663281 14.6570312,16.1155469 12.5,16.1155469 C10.3429688,16.1155469 8.59375,14.3663281 8.59375,12.2092969 C8.59375,10.0522656 10.3429688,8.30304687 12.5,8.30304687 C14.6570312,8.30304687 16.40625,10.0522656 16.40625,12.2092969 L16.40625,12.2092969 Z" id="Stroke-352"></path>
                            <path d="M12.5,32.8125 L22.5242187,19.5046875" id="Stroke-354"></path>
                            <path d="M12.5,0 C5.59609375,0 0,5.46640625 0,12.209375 C0,14.9445312 0.92109375,17.4695313 2.47578125,19.5046875" id="Stroke-356"></path>
                            <path d="M12.5,32.8125 L2.47578125,19.5046875" id="Stroke-358"></path>
                        </g>
                    </g>
                </g>
            </g>
        </g>
    </g>
</svg>