<?xml version="1.0" encoding="utf-8"?>
<!-- Generator: Adobe Illustrator 15.0.0, SVG Export Plug-In . SVG Version: 6.00 Build 0)  -->
<!DOCTYPE svg PUBLIC "-//W3C//DTD SVG 1.1//EN" "http://www.w3.org/Graphics/SVG/1.1/DTD/svg11.dtd">
<svg version="1.1" id="Layer_1" xmlns="http://www.w3.org/2000/svg" xmlns:xlink="http://www.w3.org/1999/xlink" x="0px" y="0px"
	 width="20px" height="21px" viewBox="0 0 20 21" enable-background="new 0 0 20 21" xml:space="preserve">
<title>icon-search</title>
<desc>Created with Sketch.</desc>
<g id="BFC">
	<g id="_x33_1.-search" transform="translate(-612.000000, -191.000000)">
		<g id="search" transform="translate(60.000000, 160.000000)">
			<g id="icon-search" transform="translate(552.000000, 31.000000)">
				<g id="Layer_2">
					<path id="Shape" fill="#FFFFFF" d="M20,19.313l-6.034-6.034c1.25-1.412,2.016-3.26,2.016-5.289C15.982,3.585,12.398,0,7.991,0
						C3.584,0,0,3.584,0,7.991s3.584,7.991,7.991,7.991c1.553,0,2.999-0.453,4.228-1.222l6.167,6.167L20,19.313L20,19.313z
						 M2.283,7.991c0-3.152,2.556-5.708,5.708-5.708c3.151,0,5.708,2.556,5.708,5.708c0,3.151-2.556,5.708-5.708,5.708
						C4.839,13.699,2.283,11.142,2.283,7.991L2.283,7.991z"/>
				</g>
			</g>
		</g>
	</g>
</g>
</svg>
