<?xml version="1.0" encoding="utf-8"?>
<!-- Generator: Adobe Illustrator 15.0.0, SVG Export Plug-In . SVG Version: 6.00 Build 0)  -->
<!DOCTYPE svg PUBLIC "-//W3C//DTD SVG 1.1//EN" "http://www.w3.org/Graphics/SVG/1.1/DTD/svg11.dtd">
<svg version="1.1" id="Layer_1" xmlns="http://www.w3.org/2000/svg" xmlns:xlink="http://www.w3.org/1999/xlink" x="0px" y="0px"
	 width="17px" height="17px" viewBox="0 0 17 17" enable-background="new 0 0 17 17" xml:space="preserve">
<g id="icon-bid" transform="translate(1.000000, 34.000000)">
	<path fill="#FFFFFF" d="M7.135-34C2.649-34-1-30.664-1-26.563c0,2.53,1.383,4.75,3.486,6.1v2.4C2.487-17.479,3.009-17,3.649-17
		h6.973c0.639,0,1.161-0.479,1.161-1.062v-2.4c2.103-1.35,3.485-3.57,3.485-6.1C15.271-30.664,11.621-34,7.135-34L7.135-34z
		 M9.591-21.086v2.598H4.648v-2.598l-1.051-0.68c-1.669-1.061-2.657-2.789-2.657-4.632c0-3.119,2.769-5.65,6.181-5.65
		c3.412,0,6.179,2.531,6.179,5.65c0,1.843-0.988,3.571-2.656,4.632L9.591-21.086z"/>
</g>
</svg>
