<?xml version="1.0" encoding="utf-8"?>
<!-- Generator: Adobe Illustrator 15.0.0, SVG Export Plug-In . SVG Version: 6.00 Build 0)  -->
<!DOCTYPE svg PUBLIC "-//W3C//DTD SVG 1.1//EN" "http://www.w3.org/Graphics/SVG/1.1/DTD/svg11.dtd">
<svg version="1.1" id="Layer_1" xmlns="http://www.w3.org/2000/svg" xmlns:xlink="http://www.w3.org/1999/xlink" x="0px" y="0px"
	 width="40px" height="40px" viewBox="0 0 40 40" enable-background="new 0 0 40 40" xml:space="preserve">
<title>bidding</title>
<desc>Created with Sketch.</desc>
<g id="BFC">
	<g id="_x32_1.-Bidding" transform="translate(-61.000000, -644.000000)">
		<g id="Popular" transform="translate(61.000000, 161.000000)">
			<g id="bid-sum" transform="translate(0.000000, 483.000000)">
				<g id="bidding">
					<g>
						<circle id="Oval" opacity="0.2" fill="#FFFFFF" enable-background="new    " cx="20" cy="20" r="20"/>
						<g id="icon-bid" transform="translate(22.000000, 21.000000)">
							<path fill="#FFFFFF" d="M-2.116-10.5c-4.791,0-8.688,3.563-8.688,7.943c0,2.701,1.477,5.072,3.723,6.514v2.564
								c0,0.624,0.558,1.135,1.241,1.135h7.447c0.683,0,1.241-0.511,1.241-1.135V3.957c2.246-1.441,3.723-3.812,3.723-6.514
								C6.572-6.937,2.675-10.5-2.116-10.5L-2.116-10.5z M0.507,3.292v2.775h-5.28V3.292l-1.122-0.725
								c-1.782-1.134-2.838-2.98-2.838-4.948c0-3.331,2.957-6.034,6.601-6.034c3.643,0,6.6,2.703,6.6,6.034
								c0,1.968-1.056,3.814-2.838,4.948L0.507,3.292z"/>
						</g>
					</g>
				</g>
			</g>
		</g>
	</g>
</g>
</svg>
