<?xml version="1.0" encoding="utf-8"?>
<!-- Generator: Adobe Illustrator 21.0.2, SVG Export Plug-In . SVG Version: 6.00 Build 0)  -->
<svg version="1.1" id="Layer_1" xmlns="http://www.w3.org/2000/svg" xmlns:xlink="http://www.w3.org/1999/xlink" x="0px" y="0px"
	 viewBox="0 0 17 16" style="enable-background:new 0 0 17 16;" xml:space="preserve">
<style type="text/css">
	.st0{fill:#FF533D;}
</style>
<title>icon-favorite-line</title>
<desc>Created with Sketch.</desc>
<g id="BFC">
	<g id="_x32_1.-Bidding" transform="translate(-493.000000, -1001.000000)">
		<g id="_x23_biding-item" transform="translate(0.000000, 943.000000)">
			<g id="text" transform="translate(151.204819, 2.436578)">
				<g id="summary" transform="translate(1.795181, 42.000000)">
					<g id="fav" transform="translate(340.000000, 5.000000)">
						<path id="icon-favorite-line" class="st0" d="M12.3,8.6c-1.5,0-2.9,0.7-3.8,1.8C7.6,9.3,6.2,8.6,4.7,8.6
							C2.1,8.6,0,10.6,0,13.3c0,3.2,2.9,5.9,7.3,9.9l1.2,1.1l1.2-1.1c4.4-4,7.3-6.6,7.3-9.9C17,10.6,14.9,8.6,12.3,8.6L12.3,8.6z
							 M8.6,21.9L8.6,21.9l-0.2,0c-4-3.7-6.7-6.1-6.7-8.6c0-1.7,1.3-3,3-3c1.3,0,2.6,0.9,3,2h1.6c0.4-1.2,1.7-2,3-2c1.7,0,3,1.3,3,3
							C15.3,15.8,12.6,18.2,8.6,21.9L8.6,21.9z"/>
					</g>
				</g>
			</g>
		</g>
	</g>
</g>
</svg>
