<?xml version="1.0" encoding="UTF-8" standalone="no"?>
<svg width="18px" height="17px" viewBox="0 0 18 17" version="1.1" xmlns="http://www.w3.org/2000/svg" xmlns:xlink="http://www.w3.org/1999/xlink">
    <!-- Generator: Sketch 42 (36781) - http://www.bohemiancoding.com/sketch -->
    <title>reply</title>
    <desc>Created with Sketch.</desc>
    <defs></defs>
    <g id="BFC" stroke="none" stroke-width="1" fill="none" fill-rule="evenodd">
        <g id="21.-Bidding" transform="translate(-566.000000, -1140.000000)" stroke="#C7C7CD" stroke-width="0.3" fill="#C7C7CD">
            <g id="#biding-item" transform="translate(0.000000, 1083.000000)">
                <g id="text" transform="translate(151.204819, 2.436578)">
                    <g id="summary" transform="translate(1.795181, 42.000000)">
                        <g id="reply" transform="translate(414.000000, 13.000000)">
                            <path d="M2.47236887,13.0614309 L0.585937132,13.0614309 C0.271531842,13.0614309 0,12.7751834 0,12.4094228 L0,0.832303099 C0,0.46654245 0.257240692,0.180294985 0.585937132,0.180294985 L16.0203787,0.180294985 C16.3490751,0.180294985 16.6063158,0.46654245 16.6063158,0.832303099 L16.6063158,12.4253254 C16.6063158,12.7910861 16.3490751,13.0773335 16.0203787,13.0773335 L6.55963765,13.0773335 L3.41558474,15.7330739 C3.3155467,15.8125871 3.18692635,15.860295 3.05830601,15.860295 C2.97255911,15.860295 2.88681221,15.8443923 2.80106531,15.7966844 C2.60098922,15.685366 2.47236887,15.4627291 2.47236887,15.2082869 L2.47236887,13.0614309 Z M4.08726877,5.69851 C3.75857233,5.69851 3.50133164,5.41226253 3.50133164,5.04650188 C3.50133164,4.68074123 3.75857233,4.39449377 4.08726877,4.39449377 L12.519047,4.39449377 C12.8477435,4.39449377 13.1049841,4.68074123 13.1049841,5.04650188 C13.1049841,5.41226253 12.8477435,5.69851 12.519047,5.69851 L4.08726877,5.69851 Z M4.08726877,8.8472321 C3.75857233,8.8472321 3.50133164,8.56098464 3.50133164,8.19522399 C3.50133164,7.82946334 3.75857233,7.54321588 4.08726877,7.54321588 L12.519047,7.54321588 C12.8477435,7.54321588 13.1049841,7.82946334 13.1049841,8.19522399 C13.1049841,8.56098464 12.8477435,8.8472321 12.519047,8.8472321 L4.08726877,8.8472321 Z M1.17187426,1.48431121 L1.17187426,1.48431121 L1.17187426,11.7574147 L3.05830601,11.7574147 C3.38700245,11.7574147 3.64424314,12.0436621 3.64424314,12.4094228 L3.64424314,13.888368 L6.00228282,11.8846358 C6.10232086,11.8051226 6.23094121,11.7574147 6.35956155,11.7574147 L15.4201504,11.7574147 L15.4201504,1.48431121 L1.17187426,1.48431121 Z" id="speech-bubble"></path>
                        </g>
                    </g>
                </g>
            </g>
        </g>
    </g>
</svg>