<?xml version="1.0" encoding="UTF-8" standalone="no"?>
<svg width="38px" height="27px" viewBox="0 0 38 27" version="1.1" xmlns="http://www.w3.org/2000/svg" xmlns:xlink="http://www.w3.org/1999/xlink">
    <!-- Generator: Sketch 39.1 (31720) - http://www.bohemiancoding.com/sketch -->
    <title>Icon</title>
    <desc>Created with Sketch.</desc>
    <defs></defs>
    <g id="BFC" stroke="none" stroke-width="1" fill="none" fill-rule="evenodd" stroke-linecap="round" stroke-linejoin="round">
        <g id="22.-Bidding-Detail" transform="translate(-61.000000, -639.000000)" stroke="#989DA2" stroke-width="2">
            <g id="profile">
                <g id="info" transform="translate(62.000000, 568.000000)">
                    <g id="info1">
                        <g id="Icon" transform="translate(0.250000, 72.750000)">
                            <path d="M35,22.5 C35,22.96 34.6266667,23.3333333 34.1666667,23.3333333 L0.833333333,23.3333333 C0.373333333,23.3333333 0,22.96 0,22.5 L0,0.833333333 C0,0.373333333 0.373333333,0 0.833333333,0 L34.1666667,0 C34.6266667,0 35,0.373333333 35,0.833333333 L35,22.5 L35,22.5 Z" id="Stroke-419"></path>
                            <path d="M21.6666667,11.25 C21.6666667,13.5508333 19.8008333,15.4166667 17.5,15.4166667 C15.1991667,15.4166667 13.3333333,13.5508333 13.3333333,11.25 C13.3333333,8.94916667 15.1991667,7.08333333 17.5,7.08333333 C19.8008333,7.08333333 21.6666667,8.94916667 21.6666667,11.25 L21.6666667,11.25 Z" id="Stroke-420"></path>
                        </g>
                    </g>
                </g>
            </g>
        </g>
    </g>
</svg>