<?xml version="1.0" encoding="UTF-8" standalone="no"?>
<svg width="40px" height="30px" viewBox="0 0 40 30" version="1.1" xmlns="http://www.w3.org/2000/svg" xmlns:xlink="http://www.w3.org/1999/xlink">
    <!-- Generator: Sketch 39.1 (31720) - http://www.bohemiancoding.com/sketch -->
    <title>icon dish</title>
    <desc>Created with Sketch.</desc>
    <defs></defs>
    <g id="BFC" stroke="none" stroke-width="1" fill="none" fill-rule="evenodd">
        <g id="22.-Bidding-Detail" transform="translate(-387.000000, -637.000000)" stroke-width="0.5" stroke="#323B46" fill="#989DA2">
            <g id="profile">
                <g id="info" transform="translate(62.000000, 568.000000)">
                    <g id="info2" transform="translate(326.000000, 0.000000)">
                        <g id="icon-dish" transform="translate(0.000000, 70.000000)">
                            <path d="M34.4375,26.0229492 L3.5625,26.0229492 C2.907,26.0217664 2.3761875,25.4930273 2.375,24.8400879 C2.3761875,24.1871484 2.907,23.6572266 3.5625,23.6572266 L34.4375,23.6572266 C35.093,23.6572266 35.6238125,24.1871484 35.625,24.8400879 C35.6238125,25.4930273 35.093,26.0217664 34.4375,26.0229492 L34.4375,26.0229492 Z M19,9.46289062 C26.0454375,9.45934204 31.91525,14.5905945 33.048125,21.2915039 L4.951875,21.2915039 C6.08475,14.5905945 11.9545625,9.45934204 19,9.46289062 L19,9.46289062 Z M19,2.36572266 C20.30625,2.36808838 21.372625,3.43029785 21.375,4.73144531 C21.372625,6.03259277 20.30625,7.09480225 19,7.09716797 C17.69375,7.09480225 16.627375,6.03259277 16.625,4.73144531 C16.627375,3.43029785 17.69375,2.36808838 19,2.36572266 L19,2.36572266 Z M22.792875,7.55020386 C23.3854375,6.76123535 23.7488125,5.79247192 23.75,4.73144531 C23.747625,2.1196875 21.622,0.00236572266 19,0 C16.378,0.00236572266 14.252375,2.1196875 14.25,4.73144531 C14.2511875,5.79247192 14.6145625,6.76123535 15.207125,7.55020386 C8.56425,9.10330078 3.4591875,14.6166174 2.5400625,21.4582874 C1.0746875,21.8983118 0,23.2361279 0,24.8400879 C0.0011875,26.8000891 1.5948125,28.3886719 3.5625,28.3886719 L34.4375,28.3886719 C36.4051875,28.3886719 37.9988125,26.8000891 38,24.8400879 C38,23.2361279 36.9253125,21.8983118 35.4599375,21.4582874 C34.5408125,14.6166174 29.43575,9.10330078 22.792875,7.55020386 Z" id="Fill-85"></path>
                            <path d="M19,11.8286133 C18.3445,11.8286133 17.8125,12.3585352 17.8125,13.0114746 C17.8125,13.6644141 18.3445,14.1943359 19,14.1943359 C22.246625,14.1931531 25.167875,15.8598047 26.8885625,18.4041394 C27.2555,18.9458899 27.9929375,19.0890161 28.5368125,18.723512 C29.0806875,18.3591907 29.2255625,17.6234509 28.858625,17.0817004 C26.7151875,13.9116321 23.073125,11.8297961 19,11.8286133" id="Fill-86"></path>
                        </g>
                    </g>
                </g>
            </g>
        </g>
    </g>
</svg>