<?xml version="1.0" encoding="UTF-8" standalone="no"?>
<svg width="37px" height="35px" viewBox="0 0 37 35" version="1.1" xmlns="http://www.w3.org/2000/svg" xmlns:xlink="http://www.w3.org/1999/xlink">
    <!-- Generator: Sketch 39.1 (31720) - http://www.bohemiancoding.com/sketch -->
    <title>icon chef</title>
    <desc>Created with Sketch.</desc>
    <defs></defs>
    <g id="BFC" stroke="none" stroke-width="1" fill="none" fill-rule="evenodd">
        <g id="22.-Bidding-Detail" transform="translate(-61.000000, -579.000000)" stroke-width="0.5" stroke="#989DA2" fill="#989DA2">
            <g id="profile">
                <g id="info" transform="translate(62.000000, 568.000000)">
                    <g id="info1">
                        <g id="icon-chef" transform="translate(0.000000, 12.000000)">
                            <path d="M27.6183141,3.08603297 C26.4814181,2.93879167 25.345729,3.02629162 24.2341778,3.3467225 C22.6392648,1.24249939 20.154266,-1.42108547e-14 17.4996983,-1.42108547e-14 C14.8451306,-1.42108547e-14 12.3601319,1.24310284 10.7652188,3.3467225 C9.65366767,3.02749852 8.51797857,2.93939511 7.38108257,3.08603297 C3.20884323,3.62672236 0.035913748,7.19732407 0.000310317134,11.391891 C-0.0328793218,15.3161132 2.59936077,18.7183529 6.4016865,19.6645593 C7.30444468,19.889042 7.97065125,20.6620589 8.05875465,21.5883515 L8.56444406,26.9005041 L8.56384061,26.9005041 L8.85289219,29.935244 C8.97599558,31.2302433 10.6149603,32.1191222 11.3040979,32.4377428 C11.4024599,32.4830014 11.4815116,32.5167944 11.5340116,32.5385186 C13.4300451,33.3368802 15.4648717,33.7357594 17.4996983,33.7357594 C19.5339215,33.7357594 21.5669377,33.3368802 23.459954,32.5397255 C23.8835745,32.3647256 26.0034873,31.4148984 26.1446941,29.935244 L26.4337457,26.9005041 L26.4331422,26.9005041 L26.9388316,21.5883515 C27.026935,20.6620589 27.6931416,19.889042 28.5958998,19.6645593 C32.4000359,18.7177495 35.0328794,15.3161132 34.9996898,11.391891 C34.9634829,7.19732407 31.7905534,3.62672236 27.6183141,3.08603297 L27.6183141,3.08603297 L27.6183141,3.08603297 L27.6183141,3.08603297 L27.6183141,3.08603297 Z M28.3062448,18.4926634 C26.9080558,18.8408529 25.8761597,20.0393005 25.739177,21.4736964 L25.1550394,27.6059348 C22.7388337,28.9039514 20.1657315,29.5683476 17.4996983,29.5683476 C14.8336651,29.5683476 12.2605629,28.9039514 9.84435723,27.6059348 L9.26021958,21.4736964 C9.12323689,20.0386971 8.09134084,18.8408529 6.69315187,18.4926634 C3.43453278,17.6816293 1.17824078,14.7657686 1.20660283,11.4021496 C1.23737868,7.80680653 3.95832562,4.74672182 7.5361687,4.28327377 C7.84030648,4.24404965 8.14504771,4.22353242 8.4491855,4.22353242 C9.24151269,4.22353242 10.0308227,4.35749787 10.804443,4.62361843 L11.2413393,4.77387698 L11.5008219,4.39129096 C12.851942,2.39810228 15.0943547,1.20689596 17.4996983,1.20689596 C19.905042,1.20689596 22.1474547,2.39810228 23.4985747,4.3918944 L23.7580573,4.77448042 L24.1949537,4.62422188 C25.2654704,4.25611861 26.3649526,4.14146349 27.4632279,4.28387722 C31.0404676,4.74672182 33.7620179,7.80680653 33.7927938,11.4021496 C33.8211558,14.7663721 31.5648638,17.6822327 28.3062448,18.4926634 L28.3062448,18.4926634 L28.3062448,18.4926634 L28.3062448,18.4926634 Z" id="chef"></path>
                            <path d="M14.2346376,7.10134732 C13.9709308,7.30531273 13.9220516,7.68427807 14.126017,7.94798483 C14.3293789,8.2116916 14.7089477,8.25936399 14.9726545,8.05720892 C14.9973959,8.03729513 17.5204119,6.13703744 20.2926519,8.07350201 C20.3976518,8.14712267 20.5183414,8.1827261 20.6378241,8.1827261 C20.8285137,8.1827261 21.0155826,8.09281235 21.1332549,7.92445036 C21.3239445,7.65169188 21.2575652,7.27514034 20.9842033,7.08445077 C18.1896357,5.13350345 15.3473957,6.24324429 14.2346376,7.10134732 L14.2346376,7.10134732 L14.2346376,7.10134732 L14.2346376,7.10134732 Z" id="Path"></path>
                            <path d="M11.0409006,8.00033377 C6.00331683,7.95748896 5.02271386,12.0536939 5.01426559,12.0953318 C4.94245528,12.4205902 5.14883449,12.742228 5.47409295,12.8134349 C5.5175412,12.82309 5.56159291,12.8273142 5.60383427,12.8273142 C5.88081689,12.8273142 6.1312478,12.6354177 6.19279949,12.3530041 C6.20004087,12.3210213 6.923575,9.13722977 11.0282282,9.20662628 C11.3510728,9.18429871 11.6346934,8.94231607 11.6383141,8.60981623 C11.6419348,8.27731639 11.3740039,8.00395446 11.0409006,8.00033377 L11.0409006,8.00033377 L11.0409006,8.00033377 L11.0409006,8.00033377 Z" id="Path"></path>
                        </g>
                    </g>
                </g>
            </g>
        </g>
    </g>
</svg>