<?xml version="1.0" encoding="utf-8"?>
<!-- Generator: Adobe Illustrator 21.0.2, SVG Export Plug-In . SVG Version: 6.00 Build 0)  -->
<svg version="1.1" id="레이어_1" xmlns="http://www.w3.org/2000/svg" xmlns:xlink="http://www.w3.org/1999/xlink" x="0px"
	 y="0px" viewBox="0 0 50 37" style="enable-background:new 0 0 50 37;" xml:space="preserve">
<style type="text/css">
	.st0{fill:#FF533D;}
	.st1{fill:none;}
</style>
<title>menu biding hover</title>
<desc>Created with Sketch.</desc>
<g id="Symbols">
	<g id="menu-biding-hover">
		<g id="menu-biding" transform="translate(16.333333, 0.000000)">
			<g id="icon-biding" transform="translate(9.000000, 0.000000)">
				<g id="Layer_1" transform="translate(12.000000, 18.000000)">
					<g id="Group">
						<path id="Shape" class="st0" d="M-7.9-7.5c-2.1-2-8.1-2-10,2c-1.1,2.4-0.8,5.6,1.2,8v3.9h0.5h7.7h0.5l0-3.9
							C-6,0.2-4.7-4.4-7.9-7.5L-7.9-7.5z M-9.7,1.7l0,2.8h-0.6h-3.9h-0.6l0-2.8c-1.3-1.2-1.8-2.6-1.8-3.8c-0.1-1.5,0.1-4.2,3.4-4.7
							c0.5-0.1,1.1-0.2,1.6-0.1C-7.9-6.5-7.9-2.8-7.9-2C-8-0.8-8.4,0.5-9.7,1.7L-9.7,1.7z"/>
					</g>
				</g>
				<path id="Shape_1_" class="st0" d="M-0.4,0.5l-3.3,3.6l-7.5-2.6l3.1,6.7l-4.1,2.8l4.3,2.6c0.1-0.6,0.4-1.3,0.6-1.8l-1.5-0.9
					l3.1-2.1l-1.9-4.1l4.5,1.6l2.6-2.8l2.3,3.3l4.3-2L5.3,8.7l2.9,2.1l-1.6,0.9c0.2,0.5,0.4,1.2,0.5,1.9l4.6-2.6L7.4,7.8l1-6.3
					l-6,2.8L-0.4,0.5L-0.4,0.5z"/>
			</g>
			<path id="BIDDING" class="st0" d="M-8.2,35v-6.4H-6c0.8,0,1.3,0.1,1.8,0.4s0.6,0.7,0.6,1.3c0,0.3-0.1,0.6-0.2,0.8
				s-0.4,0.4-0.7,0.5c0.4,0.1,0.7,0.3,0.9,0.5c0.2,0.3,0.3,0.6,0.3,0.9c0,0.6-0.2,1.1-0.6,1.4S-5,35-5.7,35H-8.2z M-6.9,32.2V34h1.2
				c0.3,0,0.6-0.1,0.8-0.2s0.3-0.4,0.3-0.7c0-0.3-0.1-0.6-0.2-0.7c-0.2-0.2-0.4-0.2-0.7-0.2H-6.9z M-6.9,31.3H-6
				c0.3,0,0.6-0.1,0.8-0.2s0.3-0.3,0.3-0.6c0-0.3-0.1-0.5-0.3-0.7s-0.5-0.2-0.8-0.2h-0.9V31.3z M-1.2,35h-1.3v-6.4h1.3V35z M0,35
				v-6.4h2.2c0.8,0,1.4,0.2,1.9,0.7s0.8,1.1,0.8,1.9v1.1c0,0.8-0.3,1.4-0.8,1.9S2.9,35,2.2,35H0z M1.2,29.6V34h0.8
				c0.5,0,0.8-0.2,1.1-0.5c0.3-0.3,0.4-0.7,0.4-1.2v-1.1c0-0.5-0.1-0.9-0.4-1.2c-0.3-0.3-0.6-0.5-1.1-0.5H1.2z M5.7,35v-6.4h2.2
				c0.8,0,1.4,0.2,1.9,0.7c0.5,0.5,0.8,1.1,0.8,1.9v1.1c0,0.8-0.3,1.4-0.8,1.9C9.3,34.7,8.7,35,7.9,35H5.7z M7,29.6V34h0.8
				c0.5,0,0.8-0.2,1.1-0.5c0.3-0.3,0.4-0.7,0.4-1.2v-1.1c0-0.5-0.1-0.9-0.4-1.2c-0.3-0.3-0.6-0.5-1.1-0.5H7z M12.8,35h-1.3v-6.4h1.3
				V35z M19.1,35h-1.3l-2.6-4.4l0,0V35H14v-6.4h1.3l2.6,4.4l0,0v-4.4h1.3V35z M25.1,34.1c-0.2,0.3-0.5,0.5-0.9,0.7
				c-0.4,0.2-0.9,0.3-1.5,0.3c-0.8,0-1.4-0.2-1.9-0.7S20,33.2,20,32.5v-1.3c0-0.8,0.2-1.4,0.7-1.9s1.1-0.7,1.8-0.7
				c0.8,0,1.4,0.2,1.8,0.6c0.4,0.4,0.6,0.9,0.6,1.5l0,0h-1.2c0-0.3-0.1-0.6-0.3-0.8c-0.2-0.2-0.5-0.3-0.8-0.3
				c-0.4,0-0.7,0.2-0.9,0.5c-0.2,0.3-0.4,0.7-0.4,1.2v1.3c0,0.5,0.1,0.9,0.4,1.2c0.2,0.3,0.6,0.5,1,0.5c0.3,0,0.5,0,0.7-0.1
				c0.2-0.1,0.3-0.1,0.4-0.2v-1.2h-1.1v-0.9h2.4V34.1z"/>
		</g>
		<rect id="base" class="st1" width="50" height="37"/>
	</g>
</g>
</svg>
