<?xml version="1.0" encoding="utf-8"?>
<!-- Generator: Adobe Illustrator 21.0.2, SVG Export Plug-In . SVG Version: 6.00 Build 0)  -->
<svg version="1.1" id="레이어_1" xmlns="http://www.w3.org/2000/svg" xmlns:xlink="http://www.w3.org/1999/xlink" x="0px"
	 y="0px" viewBox="0 0 50 37" style="enable-background:new 0 0 50 37;" xml:space="preserve">
<style type="text/css">
	.st0{fill:#FF533D;}
	.st1{fill:none;}
</style>
<title>menu my hover</title>
<desc>Created with Sketch.</desc>
<g id="Symbols">
	<g id="menu-my-hover">
		<g id="menu-by" transform="translate(32.000000, 0.000000)">
			<path id="Shape" class="st0" d="M-6.9,12.2c-7.2,0-8.8,3.7-9,5.9L-16,21h2.3l0.1-2.7c0.2-2.5,2.6-3.7,6.6-3.7
				c4,0,6.4,1.3,6.6,3.7l0.1,2.7h2.4l-0.1-2.9C1.8,15.9,0.3,12.2-6.9,12.2L-6.9,12.2z"/>
			<path id="Shape_1_" class="st0" d="M-7.2,10.7c6.4,0,7.9-10.7,0-10.7C-14.6,0-13.1,10.7-7.2,10.7L-7.2,10.7z M-7,2.3
				c1,0,2.8,0.2,2.8,2.6c0,4.9-5.6,4.9-5.6,0C-9.8,2.4-8,2.3-7,2.3L-7,2.3z"/>
		</g>
		<path id="ME" class="st0" d="M20.7,28.5l1.6,4.7h0l1.6-4.7h1.7v6.4h-1.3V33l0.1-2.8l0,0l-1.7,4.7h-0.9l-1.7-4.7l0,0l0.1,2.8v1.9
			H19v-6.4H20.7z M30.6,32.1H28v1.8h3.1v1h-4.4v-6.4h4.4v1H28v1.6h2.6V32.1z"/>
		<rect id="base" class="st1" width="50" height="37"/>
	</g>
</g>
</svg>
